<svg width="253" height="751" viewBox="0 0 253 751" fill="none" xmlns="http://www.w3.org/2000/svg">
<path d="M2 140.429V46.5709L85.3149 0L169 46.5709V140.429L85.3149 187L2 140.429Z" fill="#ED0259"/>
<path d="M2 422.429V328.571L85.3149 282L169 328.571V422.429L85.3149 469L2 422.429Z" fill="#ED0259"/>
<path d="M86 281.429V187.571L169.315 141L253 187.571V281.429L169.315 328L86 281.429Z" fill="#ED0259"/>
<path d="M86 563.429V469.571L169.315 423L253 469.571V563.429L169.315 610L86 563.429Z" fill="#ED0259"/>
<path d="M2 704.429V610.571L85.3149 564L169 610.571V704.429L85.3149 751L2 704.429Z" fill="#ED0259"/>
<path d="M68.9204 57H58.5204V60.08H62.1204V71H65.3204V60.08H68.9204V57ZM76.2004 71.28C80.2204 71.28 83.4804 68.12 83.4804 64C83.4804 59.88 80.2204 56.72 76.2004 56.72C72.1804 56.72 68.9204 59.88 68.9204 64C68.9204 68.12 72.1804 71.28 76.2004 71.28ZM76.2004 68.16C73.9204 68.16 72.1204 66.5 72.1204 64C72.1204 61.5 73.9204 59.84 76.2004 59.84C78.4804 59.84 80.2804 61.5 80.2804 64C80.2804 66.5 78.4804 68.16 76.2004 68.16ZM98.9621 63.74C99.7221 63.08 100.182 62.16 100.182 61C100.182 58.58 98.2021 57 95.7621 57H90.2821V71H96.1621C98.6621 71 100.682 69.38 100.682 66.9C100.682 65.48 100.002 64.4 98.9621 63.74ZM95.7621 60C96.5021 60 96.9821 60.52 96.9821 61.24C96.9821 61.96 96.4821 62.48 95.7621 62.48H93.4821V60H95.7621ZM96.1621 68H93.4821V65.32H96.1621C96.9621 65.32 97.4821 65.88 97.4821 66.66C97.4821 67.44 96.9621 68 96.1621 68ZM105.474 67.92V65.44H110.474V62.4H105.474V60.08H110.974V57H102.274V71H111.074V67.92H105.474ZM36.552 90.28C39.112 90.28 41.352 89.02 42.552 87.04L39.792 85.44C39.192 86.52 37.972 87.16 36.552 87.16C34.072 87.16 32.472 85.5 32.472 83C32.472 80.5 34.072 78.84 36.552 78.84C37.972 78.84 39.172 79.48 39.792 80.56L42.552 78.96C41.332 76.98 39.092 75.72 36.552 75.72C32.332 75.72 29.272 78.88 29.272 83C29.272 87.12 32.332 90.28 36.552 90.28ZM50.5364 90.28C54.5564 90.28 57.8164 87.12 57.8164 83C57.8164 78.88 54.5564 75.72 50.5364 75.72C46.5164 75.72 43.2564 78.88 43.2564 83C43.2564 87.12 46.5164 90.28 50.5364 90.28ZM50.5364 87.16C48.2564 87.16 46.4564 85.5 46.4564 83C46.4564 80.5 48.2564 78.84 50.5364 78.84C52.8164 78.84 54.6164 80.5 54.6164 83C54.6164 85.5 52.8164 87.16 50.5364 87.16ZM67.4181 76V83.6L62.0181 76H59.6181V90H62.8181V82.4L68.2181 90H70.6181V76H67.4181ZM81.5165 79.08V76H73.0165V90H76.2165V84.86H81.4165V81.78H76.2165V79.08H81.5165ZM83.4071 76V90H86.6071V76H83.4071ZM96.3726 90H99.8126L96.8326 84.86C98.3726 84.08 99.4126 82.52 99.4126 80.8C99.4126 78.14 97.2726 76 94.6126 76H89.0126V90H92.2126V85.4H93.7326L96.3726 90ZM92.2126 79H94.6126C95.4926 79 96.2126 79.78 96.2126 80.8C96.2126 81.82 95.4926 82.6 94.6126 82.6H92.2126V79ZM115.317 76H112.117L108.317 82.22L104.517 76H101.317V90H104.517V81.86L108.137 87.8H108.497L112.117 81.86V90H115.317V76ZM120.923 86.92V84.44H125.923V81.4H120.923V79.08H126.423V76H117.723V90H126.523V86.92H120.923ZM133.929 76H128.329V90H133.929C137.789 90 140.729 86.96 140.729 83C140.729 79.04 137.789 76 133.929 76ZM133.929 86.92H131.529V79.08H133.929C136.129 79.08 137.649 80.6 137.649 83C137.649 85.4 136.129 86.92 133.929 86.92Z" fill="white"/>
<path d="M53.5001 130.18C52.5301 130.18 51.7051 129.955 51.0251 129.505C50.3451 129.055 49.8701 128.425 49.6001 127.615L50.5001 127.09C50.6901 127.75 51.0351 128.26 51.5351 128.62C52.0451 128.98 52.7051 129.16 53.5151 129.16C54.2951 129.16 54.9001 128.99 55.3301 128.65C55.7701 128.3 55.9901 127.84 55.9901 127.27C55.9901 126.72 55.7901 126.305 55.3901 126.025C55.0001 125.745 54.3401 125.455 53.4101 125.155C52.3001 124.785 51.5801 124.495 51.2501 124.285C50.4501 123.805 50.0501 123.11 50.0501 122.2C50.0501 121.31 50.3601 120.61 50.9801 120.1C51.5901 119.58 52.3551 119.32 53.2751 119.32C53.6851 119.32 54.0651 119.375 54.4151 119.485C54.7751 119.595 55.1001 119.755 55.3901 119.965C55.6901 120.165 55.9501 120.405 56.1701 120.685C56.4001 120.955 56.5901 121.255 56.7401 121.585L55.8551 122.08C55.3751 120.92 54.5151 120.34 53.2751 120.34C52.6151 120.34 52.0851 120.5 51.6851 120.82C51.2951 121.14 51.1001 121.585 51.1001 122.155C51.1001 122.685 51.2801 123.075 51.6401 123.325C52.0101 123.585 52.6051 123.85 53.4251 124.12L54.2351 124.405C54.3951 124.455 54.6351 124.545 54.9551 124.675C55.2951 124.805 55.5301 124.915 55.6601 125.005C55.8101 125.095 55.9901 125.225 56.2001 125.395C56.4201 125.555 56.5751 125.72 56.6651 125.89C56.7651 126.05 56.8501 126.25 56.9201 126.49C57.0001 126.72 57.0401 126.97 57.0401 127.24C57.0401 128.13 56.7151 128.845 56.0651 129.385C55.4151 129.915 54.5601 130.18 53.5001 130.18ZM62.448 123.46H60.288V128.005C60.288 128.325 60.333 128.57 60.423 128.74C60.513 128.9 60.648 129.015 60.828 129.085C61.008 129.145 61.233 129.175 61.503 129.175C61.773 129.165 62.088 129.15 62.448 129.13V130C61.398 130.16 60.608 130.085 60.078 129.775C59.558 129.465 59.298 128.875 59.298 128.005V123.46H57.723V122.5H59.298V120.7L60.288 120.4V122.5H62.448V123.46ZM70.0939 122.5H71.0839V130H70.0939V128.53C69.4039 129.63 68.3939 130.18 67.0639 130.18C65.9939 130.18 65.0789 129.8 64.3189 129.04C63.5689 128.28 63.1939 127.35 63.1939 126.25C63.1939 125.16 63.5689 124.23 64.3189 123.46C65.0789 122.7 65.9939 122.32 67.0639 122.32C68.3939 122.32 69.4039 122.87 70.0939 123.97V122.5ZM65.0389 128.365C65.6089 128.935 66.3089 129.22 67.1389 129.22C67.9689 129.22 68.6689 128.935 69.2389 128.365C69.8089 127.785 70.0939 127.08 70.0939 126.25C70.0939 125.42 69.8089 124.72 69.2389 124.15C68.6689 123.57 67.9689 123.28 67.1389 123.28C66.3089 123.28 65.6089 123.57 65.0389 124.15C64.4689 124.72 64.1839 125.42 64.1839 126.25C64.1839 127.08 64.4689 127.785 65.0389 128.365ZM74.17 123.745C74.63 122.835 75.42 122.38 76.54 122.38V123.34C76.2 123.34 75.885 123.39 75.595 123.49C75.305 123.59 75.055 123.74 74.845 123.94C74.635 124.14 74.47 124.4 74.35 124.72C74.23 125.03 74.17 125.4 74.17 125.83V130H73.18V122.5H74.17V123.745ZM82.0183 123.46H79.8583V128.005C79.8583 128.325 79.9033 128.57 79.9933 128.74C80.0833 128.9 80.2183 129.015 80.3983 129.085C80.5783 129.145 80.8033 129.175 81.0733 129.175C81.3433 129.165 81.6583 129.15 82.0183 129.13V130C80.9683 130.16 80.1783 130.085 79.6483 129.775C79.1283 129.465 78.8683 128.875 78.8683 128.005V123.46H77.2933V122.5H78.8683V120.7L79.8583 120.4V122.5H82.0183V123.46ZM91.6183 119.5C93.0483 119.5 94.2283 120.01 95.1583 121.03C96.0983 122.03 96.5683 123.27 96.5683 124.75C96.5683 126.23 96.0983 127.475 95.1583 128.485C94.2283 129.495 93.0483 130 91.6183 130H87.5683V119.5H91.6183ZM91.6183 129.01C92.7683 129.01 93.7083 128.6 94.4383 127.78C95.1783 126.95 95.5483 125.94 95.5483 124.75C95.5483 123.56 95.1783 122.55 94.4383 121.72C93.7083 120.9 92.7683 120.49 91.6183 120.49H88.6183V129.01H91.6183ZM104.664 122.5H105.654V130H104.664V128.53C103.974 129.63 102.964 130.18 101.634 130.18C100.564 130.18 99.6492 129.8 98.8892 129.04C98.1392 128.28 97.7642 127.35 97.7642 126.25C97.7642 125.16 98.1392 124.23 98.8892 123.46C99.6492 122.7 100.564 122.32 101.634 122.32C102.964 122.32 103.974 122.87 104.664 123.97V122.5ZM99.6092 128.365C100.179 128.935 100.879 129.22 101.709 129.22C102.539 129.22 103.239 128.935 103.809 128.365C104.379 127.785 104.664 127.08 104.664 126.25C104.664 125.42 104.379 124.72 103.809 124.15C103.239 123.57 102.539 123.28 101.709 123.28C100.879 123.28 100.179 123.57 99.6092 124.15C99.0392 124.72 98.7542 125.42 98.7542 126.25C98.7542 127.08 99.0392 127.785 99.6092 128.365ZM111.725 123.46H109.565V128.005C109.565 128.325 109.61 128.57 109.7 128.74C109.79 128.9 109.925 129.015 110.105 129.085C110.285 129.145 110.51 129.175 110.78 129.175C111.05 129.165 111.365 129.15 111.725 129.13V130C110.675 130.16 109.885 130.085 109.355 129.775C108.835 129.465 108.575 128.875 108.575 128.005V123.46H107V122.5H108.575V120.7L109.565 120.4V122.5H111.725V123.46ZM116.386 122.32C117.506 122.32 118.401 122.715 119.071 123.505C119.761 124.285 120.106 125.21 120.106 126.28C120.106 126.33 120.101 126.395 120.091 126.475C120.091 126.555 120.086 126.645 120.076 126.745H113.491C113.591 127.505 113.911 128.11 114.451 128.56C114.991 129 115.666 129.22 116.476 129.22C117.046 129.22 117.536 129.105 117.946 128.875C118.366 128.635 118.681 128.325 118.891 127.945L119.761 128.455C119.431 128.995 118.981 129.42 118.411 129.73C117.841 130.03 117.191 130.18 116.461 130.18C115.281 130.18 114.321 129.81 113.581 129.07C112.841 128.33 112.471 127.39 112.471 126.25C112.471 125.12 112.836 124.185 113.566 123.445C114.296 122.695 115.236 122.32 116.386 122.32ZM116.386 123.28C115.996 123.28 115.636 123.34 115.306 123.46C114.976 123.58 114.681 123.75 114.421 123.97C114.171 124.19 113.966 124.455 113.806 124.765C113.646 125.075 113.541 125.415 113.491 125.785H119.086C118.976 124.985 118.671 124.37 118.171 123.94C117.651 123.5 117.056 123.28 116.386 123.28Z" fill="white"/>
<path d="M147.338 221.28C150.378 221.28 152.538 219.68 152.538 216.98C152.538 214.02 150.158 213.28 148.038 212.64C145.858 211.98 145.518 211.54 145.518 210.9C145.518 210.34 146.018 209.84 147.018 209.84C148.298 209.84 148.958 210.46 149.438 211.46L152.138 209.88C151.118 207.82 149.318 206.72 147.018 206.72C144.598 206.72 142.318 208.28 142.318 210.98C142.318 213.66 144.358 214.66 146.438 215.24C148.538 215.82 149.338 216.16 149.338 217.02C149.338 217.56 148.958 218.16 147.438 218.16C145.858 218.16 144.998 217.38 144.498 216.22L141.738 217.82C142.518 219.88 144.398 221.28 147.338 221.28ZM160.72 221.28C164.74 221.28 168 218.12 168 214C168 209.88 164.74 206.72 160.72 206.72C156.7 206.72 153.44 209.88 153.44 214C153.44 218.12 156.7 221.28 160.72 221.28ZM160.72 218.16C158.44 218.16 156.64 216.5 156.64 214C156.64 211.5 158.44 209.84 160.72 209.84C163 209.84 164.8 211.5 164.8 214C164.8 216.5 163 218.16 160.72 218.16ZM176.482 221.28C180.502 221.28 183.762 218.12 183.762 214C183.762 209.88 180.502 206.72 176.482 206.72C172.462 206.72 169.202 209.88 169.202 214C169.202 218.12 172.462 221.28 176.482 221.28ZM176.482 218.16C174.202 218.16 172.402 216.5 172.402 214C172.402 211.5 174.202 209.84 176.482 209.84C178.762 209.84 180.562 211.5 180.562 214C180.562 216.5 178.762 218.16 176.482 218.16ZM193.363 207V214.6L187.963 207H185.563V221H188.763V213.4L194.163 221H196.563V207H193.363Z" fill="white"/>
<path d="M106.361 245.5H107.411V256H106.511L100.661 247.45V256H99.6111V245.5H100.511L106.361 254.05V245.5ZM114.936 248.5H115.926V256H114.936V254.83C114.376 255.73 113.536 256.18 112.416 256.18C111.506 256.18 110.786 255.905 110.256 255.355C109.736 254.795 109.476 254.045 109.476 253.105V248.5H110.466V253.105C110.466 253.775 110.641 254.295 110.991 254.665C111.341 255.035 111.846 255.22 112.506 255.22C113.226 255.22 113.811 254.995 114.261 254.545C114.711 254.095 114.936 253.39 114.936 252.43V248.5ZM126.016 248.32C126.436 248.32 126.816 248.39 127.156 248.53C127.506 248.67 127.801 248.87 128.041 249.13C128.291 249.39 128.481 249.705 128.611 250.075C128.751 250.445 128.821 250.86 128.821 251.32V256H127.831V251.32C127.831 250.66 127.661 250.155 127.321 249.805C126.991 249.455 126.551 249.28 126.001 249.28C125.371 249.28 124.866 249.49 124.486 249.91C124.106 250.32 123.916 250.965 123.916 251.845V256H122.926V251.32C122.926 250.66 122.766 250.155 122.446 249.805C122.136 249.455 121.711 249.28 121.171 249.28C120.871 249.28 120.586 249.335 120.316 249.445C120.056 249.545 119.826 249.7 119.626 249.91C119.436 250.12 119.286 250.39 119.176 250.72C119.066 251.04 119.011 251.415 119.011 251.845V256H118.021V248.5H119.011V249.595C119.551 248.745 120.316 248.32 121.306 248.32C122.396 248.32 123.156 248.775 123.586 249.685C124.126 248.775 124.936 248.32 126.016 248.32ZM134.756 248.32C135.826 248.32 136.736 248.7 137.486 249.46C138.246 250.22 138.626 251.15 138.626 252.25C138.626 253.35 138.246 254.28 137.486 255.04C136.736 255.8 135.826 256.18 134.756 256.18C133.426 256.18 132.416 255.63 131.726 254.53V256H130.736V245.5H131.726V249.97C132.416 248.87 133.426 248.32 134.756 248.32ZM132.581 254.365C133.151 254.935 133.851 255.22 134.681 255.22C135.511 255.22 136.211 254.935 136.781 254.365C137.351 253.785 137.636 253.08 137.636 252.25C137.636 251.42 137.351 250.72 136.781 250.15C136.211 249.57 135.511 249.28 134.681 249.28C133.851 249.28 133.151 249.57 132.581 250.15C132.011 250.72 131.726 251.42 131.726 252.25C131.726 253.08 132.011 253.785 132.581 254.365ZM143.737 248.32C144.857 248.32 145.752 248.715 146.422 249.505C147.112 250.285 147.457 251.21 147.457 252.28C147.457 252.33 147.452 252.395 147.442 252.475C147.442 252.555 147.437 252.645 147.427 252.745H140.842C140.942 253.505 141.262 254.11 141.802 254.56C142.342 255 143.017 255.22 143.827 255.22C144.397 255.22 144.887 255.105 145.297 254.875C145.717 254.635 146.032 254.325 146.242 253.945L147.112 254.455C146.782 254.995 146.332 255.42 145.762 255.73C145.192 256.03 144.542 256.18 143.812 256.18C142.632 256.18 141.672 255.81 140.932 255.07C140.192 254.33 139.822 253.39 139.822 252.25C139.822 251.12 140.187 250.185 140.917 249.445C141.647 248.695 142.587 248.32 143.737 248.32ZM143.737 249.28C143.347 249.28 142.987 249.34 142.657 249.46C142.327 249.58 142.032 249.75 141.772 249.97C141.522 250.19 141.317 250.455 141.157 250.765C140.997 251.075 140.892 251.415 140.842 251.785H146.437C146.327 250.985 146.022 250.37 145.522 249.94C145.002 249.5 144.407 249.28 143.737 249.28ZM150.021 249.745C150.481 248.835 151.271 248.38 152.391 248.38V249.34C152.051 249.34 151.736 249.39 151.446 249.49C151.156 249.59 150.906 249.74 150.696 249.94C150.486 250.14 150.321 250.4 150.201 250.72C150.081 251.03 150.021 251.4 150.021 251.83V256H149.031V248.5H150.021V249.745ZM163.783 255.055C163.013 255.805 162.083 256.18 160.993 256.18C159.883 256.18 158.948 255.805 158.188 255.055C157.428 254.295 157.048 253.36 157.048 252.25C157.048 251.14 157.428 250.21 158.188 249.46C158.948 248.7 159.883 248.32 160.993 248.32C162.093 248.32 163.023 248.7 163.783 249.46C164.553 250.21 164.938 251.14 164.938 252.25C164.938 253.35 164.553 254.285 163.783 255.055ZM158.893 254.365C159.463 254.935 160.163 255.22 160.993 255.22C161.823 255.22 162.523 254.935 163.093 254.365C163.663 253.785 163.948 253.08 163.948 252.25C163.948 251.42 163.663 250.72 163.093 250.15C162.523 249.57 161.823 249.28 160.993 249.28C160.163 249.28 159.463 249.57 158.893 250.15C158.323 250.72 158.038 251.42 158.038 252.25C158.038 253.08 158.323 253.785 158.893 254.365ZM170.052 246.28C169.322 246.22 168.777 246.345 168.417 246.655C168.067 246.965 167.892 247.48 167.892 248.2V248.5H170.052V249.46H167.892V256H166.902V249.46H165.627V248.5H166.902V248.2C166.902 247.21 167.172 246.465 167.712 245.965C168.252 245.465 169.032 245.25 170.052 245.32V246.28ZM178.832 249.46H176.672V254.005C176.672 254.325 176.717 254.57 176.807 254.74C176.897 254.9 177.032 255.015 177.212 255.085C177.392 255.145 177.617 255.175 177.887 255.175C178.157 255.165 178.472 255.15 178.832 255.13V256C177.782 256.16 176.992 256.085 176.462 255.775C175.942 255.465 175.682 254.875 175.682 254.005V249.46H174.107V248.5H175.682V246.7L176.672 246.4V248.5H178.832V249.46ZM186.313 255.055C185.543 255.805 184.613 256.18 183.523 256.18C182.413 256.18 181.478 255.805 180.718 255.055C179.958 254.295 179.578 253.36 179.578 252.25C179.578 251.14 179.958 250.21 180.718 249.46C181.478 248.7 182.413 248.32 183.523 248.32C184.623 248.32 185.553 248.7 186.313 249.46C187.083 250.21 187.468 251.14 187.468 252.25C187.468 253.35 187.083 254.285 186.313 255.055ZM181.423 254.365C181.993 254.935 182.693 255.22 183.523 255.22C184.353 255.22 185.053 254.935 185.623 254.365C186.193 253.785 186.478 253.08 186.478 252.25C186.478 251.42 186.193 250.72 185.623 250.15C185.053 249.57 184.353 249.28 183.523 249.28C182.693 249.28 181.993 249.57 181.423 250.15C180.853 250.72 180.568 251.42 180.568 252.25C180.568 253.08 180.853 253.785 181.423 254.365ZM195.184 256H193.864L190.114 252.385V256H189.124V245.5H190.114V251.815L193.684 248.5H195.034L191.164 252.1L195.184 256ZM199.254 248.32C200.374 248.32 201.269 248.715 201.939 249.505C202.629 250.285 202.974 251.21 202.974 252.28C202.974 252.33 202.969 252.395 202.959 252.475C202.959 252.555 202.954 252.645 202.944 252.745H196.359C196.459 253.505 196.779 254.11 197.319 254.56C197.859 255 198.534 255.22 199.344 255.22C199.914 255.22 200.404 255.105 200.814 254.875C201.234 254.635 201.549 254.325 201.759 253.945L202.629 254.455C202.299 254.995 201.849 255.42 201.279 255.73C200.709 256.03 200.059 256.18 199.329 256.18C198.149 256.18 197.189 255.81 196.449 255.07C195.709 254.33 195.339 253.39 195.339 252.25C195.339 251.12 195.704 250.185 196.434 249.445C197.164 248.695 198.104 248.32 199.254 248.32ZM199.254 249.28C198.864 249.28 198.504 249.34 198.174 249.46C197.844 249.58 197.549 249.75 197.289 249.97C197.039 250.19 196.834 250.455 196.674 250.765C196.514 251.075 196.409 251.415 196.359 251.785H201.954C201.844 250.985 201.539 250.37 201.039 249.94C200.519 249.5 199.924 249.28 199.254 249.28ZM208.059 248.32C208.969 248.32 209.684 248.6 210.204 249.16C210.734 249.71 210.999 250.455 210.999 251.395V256H210.009V251.395C210.009 250.725 209.834 250.205 209.484 249.835C209.134 249.465 208.629 249.28 207.969 249.28C207.249 249.28 206.664 249.505 206.214 249.955C205.764 250.405 205.539 251.11 205.539 252.07V256H204.549V248.5H205.539V249.67C206.089 248.77 206.929 248.32 208.059 248.32ZM213.693 250.465C213.693 250.805 213.843 251.075 214.143 251.275C214.443 251.475 214.808 251.63 215.238 251.74C215.548 251.82 215.868 251.91 216.198 252.01C216.538 252.1 216.848 252.23 217.128 252.4C217.408 252.56 217.633 252.77 217.803 253.03C217.983 253.29 218.073 253.62 218.073 254.02C218.073 254.66 217.818 255.18 217.308 255.58C216.818 255.98 216.168 256.18 215.358 256.18C214.638 256.18 214.023 256.02 213.513 255.7C213.013 255.38 212.663 254.965 212.463 254.455L213.303 253.96C213.443 254.35 213.693 254.66 214.053 254.89C214.413 255.11 214.848 255.22 215.358 255.22C215.848 255.22 216.258 255.125 216.588 254.935C216.918 254.745 217.083 254.44 217.083 254.02C217.083 253.68 216.933 253.41 216.633 253.21C216.333 253.01 215.968 252.855 215.538 252.745C215.218 252.665 214.893 252.58 214.563 252.49C214.233 252.39 213.928 252.26 213.648 252.1C213.368 251.93 213.138 251.72 212.958 251.47C212.788 251.21 212.703 250.875 212.703 250.465C212.703 249.855 212.943 249.345 213.423 248.935C213.923 248.525 214.538 248.32 215.268 248.32C215.878 248.32 216.413 248.455 216.873 248.725C217.333 248.995 217.673 249.37 217.893 249.85L217.068 250.33C216.788 249.63 216.188 249.28 215.268 249.28C214.838 249.28 214.468 249.385 214.158 249.595C213.848 249.795 213.693 250.085 213.693 250.465ZM227.225 246.28C226.495 246.22 225.95 246.345 225.59 246.655C225.24 246.965 225.065 247.48 225.065 248.2V248.5H227.225V249.46H225.065V256H224.075V249.46H222.8V248.5H224.075V248.2C224.075 247.21 224.345 246.465 224.885 245.965C225.425 245.465 226.205 245.25 227.225 245.32V246.28ZM234.11 255.055C233.34 255.805 232.41 256.18 231.32 256.18C230.21 256.18 229.275 255.805 228.515 255.055C227.755 254.295 227.375 253.36 227.375 252.25C227.375 251.14 227.755 250.21 228.515 249.46C229.275 248.7 230.21 248.32 231.32 248.32C232.42 248.32 233.35 248.7 234.11 249.46C234.88 250.21 235.265 251.14 235.265 252.25C235.265 253.35 234.88 254.285 234.11 255.055ZM229.22 254.365C229.79 254.935 230.49 255.22 231.32 255.22C232.15 255.22 232.85 254.935 233.42 254.365C233.99 253.785 234.275 253.08 234.275 252.25C234.275 251.42 233.99 250.72 233.42 250.15C232.85 249.57 232.15 249.28 231.32 249.28C230.49 249.28 229.79 249.57 229.22 250.15C228.65 250.72 228.365 251.42 228.365 252.25C228.365 253.08 228.65 253.785 229.22 254.365ZM237.912 249.745C238.372 248.835 239.162 248.38 240.282 248.38V249.34C239.942 249.34 239.627 249.39 239.337 249.49C239.047 249.59 238.797 249.74 238.587 249.94C238.377 250.14 238.212 250.4 238.092 250.72C237.972 251.03 237.912 251.4 237.912 251.83V256H236.922V248.5H237.912V249.745ZM157.341 264.465C157.341 264.805 157.491 265.075 157.791 265.275C158.091 265.475 158.456 265.63 158.886 265.74C159.196 265.82 159.516 265.91 159.846 266.01C160.186 266.1 160.496 266.23 160.776 266.4C161.056 266.56 161.281 266.77 161.451 267.03C161.631 267.29 161.721 267.62 161.721 268.02C161.721 268.66 161.466 269.18 160.956 269.58C160.466 269.98 159.816 270.18 159.006 270.18C158.286 270.18 157.671 270.02 157.161 269.7C156.661 269.38 156.311 268.965 156.111 268.455L156.951 267.96C157.091 268.35 157.341 268.66 157.701 268.89C158.061 269.11 158.496 269.22 159.006 269.22C159.496 269.22 159.906 269.125 160.236 268.935C160.566 268.745 160.731 268.44 160.731 268.02C160.731 267.68 160.581 267.41 160.281 267.21C159.981 267.01 159.616 266.855 159.186 266.745C158.866 266.665 158.541 266.58 158.211 266.49C157.881 266.39 157.576 266.26 157.296 266.1C157.016 265.93 156.786 265.72 156.606 265.47C156.436 265.21 156.351 264.875 156.351 264.465C156.351 263.855 156.591 263.345 157.071 262.935C157.571 262.525 158.186 262.32 158.916 262.32C159.526 262.32 160.061 262.455 160.521 262.725C160.981 262.995 161.321 263.37 161.541 263.85L160.716 264.33C160.436 263.63 159.836 263.28 158.916 263.28C158.486 263.28 158.116 263.385 157.806 263.595C157.496 263.795 157.341 264.085 157.341 264.465ZM169.603 262.5H170.593V270H169.603V268.53C168.913 269.63 167.903 270.18 166.573 270.18C165.503 270.18 164.588 269.8 163.828 269.04C163.078 268.28 162.703 267.35 162.703 266.25C162.703 265.16 163.078 264.23 163.828 263.46C164.588 262.7 165.503 262.32 166.573 262.32C167.903 262.32 168.913 262.87 169.603 263.97V262.5ZM164.548 268.365C165.118 268.935 165.818 269.22 166.648 269.22C167.478 269.22 168.178 268.935 168.748 268.365C169.318 267.785 169.603 267.08 169.603 266.25C169.603 265.42 169.318 264.72 168.748 264.15C168.178 263.57 167.478 263.28 166.648 263.28C165.818 263.28 165.118 263.57 164.548 264.15C163.978 264.72 163.693 265.42 163.693 266.25C163.693 267.08 163.978 267.785 164.548 268.365ZM172.689 270V259.05H173.679V270H172.689ZM179.244 262.32C180.364 262.32 181.259 262.715 181.929 263.505C182.619 264.285 182.964 265.21 182.964 266.28C182.964 266.33 182.959 266.395 182.949 266.475C182.949 266.555 182.944 266.645 182.934 266.745H176.349C176.449 267.505 176.769 268.11 177.309 268.56C177.849 269 178.524 269.22 179.334 269.22C179.904 269.22 180.394 269.105 180.804 268.875C181.224 268.635 181.539 268.325 181.749 267.945L182.619 268.455C182.289 268.995 181.839 269.42 181.269 269.73C180.699 270.03 180.049 270.18 179.319 270.18C178.139 270.18 177.179 269.81 176.439 269.07C175.699 268.33 175.329 267.39 175.329 266.25C175.329 265.12 175.694 264.185 176.424 263.445C177.154 262.695 178.094 262.32 179.244 262.32ZM179.244 263.28C178.854 263.28 178.494 263.34 178.164 263.46C177.834 263.58 177.539 263.75 177.279 263.97C177.029 264.19 176.824 264.455 176.664 264.765C176.504 265.075 176.399 265.415 176.349 265.785H181.944C181.834 264.985 181.529 264.37 181.029 263.94C180.509 263.5 179.914 263.28 179.244 263.28Z" fill="white"/>
<path d="M63.3383 362.28C66.3783 362.28 68.5383 360.68 68.5383 357.98C68.5383 355.02 66.1583 354.28 64.0383 353.64C61.8583 352.98 61.5183 352.54 61.5183 351.9C61.5183 351.34 62.0183 350.84 63.0183 350.84C64.2983 350.84 64.9583 351.46 65.4383 352.46L68.1383 350.88C67.1183 348.82 65.3183 347.72 63.0183 347.72C60.5983 347.72 58.3183 349.28 58.3183 351.98C58.3183 354.66 60.3583 355.66 62.4383 356.24C64.5383 356.82 65.3383 357.16 65.3383 358.02C65.3383 358.56 64.9583 359.16 63.4383 359.16C61.8583 359.16 60.9983 358.38 60.4983 357.22L57.7383 358.82C58.5183 360.88 60.3983 362.28 63.3383 362.28ZM76.7198 362.28C80.7398 362.28 83.9998 359.12 83.9998 355C83.9998 350.88 80.7398 347.72 76.7198 347.72C72.6998 347.72 69.4398 350.88 69.4398 355C69.4398 359.12 72.6998 362.28 76.7198 362.28ZM76.7198 359.16C74.4398 359.16 72.6398 357.5 72.6398 355C72.6398 352.5 74.4398 350.84 76.7198 350.84C78.9998 350.84 80.7998 352.5 80.7998 355C80.7998 357.5 78.9998 359.16 76.7198 359.16ZM92.4816 362.28C96.5016 362.28 99.7616 359.12 99.7616 355C99.7616 350.88 96.5016 347.72 92.4816 347.72C88.4616 347.72 85.2016 350.88 85.2016 355C85.2016 359.12 88.4616 362.28 92.4816 362.28ZM92.4816 359.16C90.2016 359.16 88.4016 357.5 88.4016 355C88.4016 352.5 90.2016 350.84 92.4816 350.84C94.7616 350.84 96.5616 352.5 96.5616 355C96.5616 357.5 94.7616 359.16 92.4816 359.16ZM109.363 348V355.6L103.963 348H101.563V362H104.763V354.4L110.163 362H112.563V348H109.363Z" fill="white"/>
<path d="M22.5058 396L21.5308 393.42H16.5508L15.5758 396H14.4658L18.5008 385.5H19.5808L23.6158 396H22.5058ZM16.9258 392.43H21.1558L19.0408 386.805L16.9258 392.43ZM28.1626 396.18C27.0326 396.18 26.0926 395.805 25.3426 395.055C24.5926 394.295 24.2176 393.36 24.2176 392.25C24.2176 391.14 24.5926 390.21 25.3426 389.46C26.0926 388.7 27.0326 388.32 28.1626 388.32C28.9126 388.32 29.5776 388.5 30.1576 388.86C30.7476 389.21 31.1776 389.685 31.4476 390.285L30.6376 390.75C30.4376 390.3 30.1176 389.945 29.6776 389.685C29.2376 389.415 28.7326 389.28 28.1626 389.28C27.3326 389.28 26.6326 389.57 26.0626 390.15C25.4926 390.72 25.2076 391.42 25.2076 392.25C25.2076 393.08 25.4926 393.785 26.0626 394.365C26.6326 394.935 27.3326 395.22 28.1626 395.22C28.7326 395.22 29.2326 395.09 29.6626 394.83C30.1026 394.56 30.4476 394.2 30.6976 393.75L31.5226 394.23C31.2126 394.83 30.7576 395.305 30.1576 395.655C29.5576 396.005 28.8926 396.18 28.1626 396.18ZM36.3657 396.18C35.2357 396.18 34.2957 395.805 33.5457 395.055C32.7957 394.295 32.4207 393.36 32.4207 392.25C32.4207 391.14 32.7957 390.21 33.5457 389.46C34.2957 388.7 35.2357 388.32 36.3657 388.32C37.1157 388.32 37.7807 388.5 38.3607 388.86C38.9507 389.21 39.3807 389.685 39.6507 390.285L38.8407 390.75C38.6407 390.3 38.3207 389.945 37.8807 389.685C37.4407 389.415 36.9357 389.28 36.3657 389.28C35.5357 389.28 34.8357 389.57 34.2657 390.15C33.6957 390.72 33.4107 391.42 33.4107 392.25C33.4107 393.08 33.6957 393.785 34.2657 394.365C34.8357 394.935 35.5357 395.22 36.3657 395.22C36.9357 395.22 37.4357 395.09 37.8657 394.83C38.3057 394.56 38.6507 394.2 38.9007 393.75L39.7257 394.23C39.4157 394.83 38.9607 395.305 38.3607 395.655C37.7607 396.005 37.0957 396.18 36.3657 396.18ZM44.5388 388.32C45.6588 388.32 46.5538 388.715 47.2238 389.505C47.9138 390.285 48.2588 391.21 48.2588 392.28C48.2588 392.33 48.2538 392.395 48.2438 392.475C48.2438 392.555 48.2388 392.645 48.2288 392.745H41.6438C41.7438 393.505 42.0638 394.11 42.6038 394.56C43.1438 395 43.8188 395.22 44.6288 395.22C45.1988 395.22 45.6888 395.105 46.0988 394.875C46.5188 394.635 46.8338 394.325 47.0438 393.945L47.9138 394.455C47.5838 394.995 47.1338 395.42 46.5638 395.73C45.9938 396.03 45.3438 396.18 44.6138 396.18C43.4338 396.18 42.4738 395.81 41.7338 395.07C40.9938 394.33 40.6238 393.39 40.6238 392.25C40.6238 391.12 40.9888 390.185 41.7188 389.445C42.4488 388.695 43.3888 388.32 44.5388 388.32ZM44.5388 389.28C44.1488 389.28 43.7888 389.34 43.4588 389.46C43.1288 389.58 42.8338 389.75 42.5738 389.97C42.3238 390.19 42.1188 390.455 41.9588 390.765C41.7988 391.075 41.6938 391.415 41.6438 391.785H47.2388C47.1288 390.985 46.8238 390.37 46.3238 389.94C45.8038 389.5 45.2088 389.28 44.5388 389.28ZM53.8536 388.32C54.9236 388.32 55.8336 388.7 56.5836 389.46C57.3436 390.22 57.7236 391.15 57.7236 392.25C57.7236 393.35 57.3436 394.28 56.5836 395.04C55.8336 395.8 54.9236 396.18 53.8536 396.18C52.5236 396.18 51.5136 395.63 50.8236 394.53V399H49.8336V388.5H50.8236V389.97C51.5136 388.87 52.5236 388.32 53.8536 388.32ZM51.6786 394.365C52.2486 394.935 52.9486 395.22 53.7786 395.22C54.6086 395.22 55.3086 394.935 55.8786 394.365C56.4486 393.785 56.7336 393.08 56.7336 392.25C56.7336 391.42 56.4486 390.72 55.8786 390.15C55.3086 389.57 54.6086 389.28 53.7786 389.28C52.9486 389.28 52.2486 389.57 51.6786 390.15C51.1086 390.72 50.8236 391.42 50.8236 392.25C50.8236 393.08 51.1086 393.785 51.6786 394.365ZM63.1982 389.46H61.0382V394.005C61.0382 394.325 61.0832 394.57 61.1732 394.74C61.2632 394.9 61.3982 395.015 61.5782 395.085C61.7582 395.145 61.9832 395.175 62.2532 395.175C62.5232 395.165 62.8382 395.15 63.1982 395.13V396C62.1482 396.16 61.3582 396.085 60.8282 395.775C60.3082 395.465 60.0482 394.875 60.0482 394.005V389.46H58.4732V388.5H60.0482V386.7L61.0382 386.4V388.5H63.1982V389.46ZM70.8441 388.5H71.8341V396H70.8441V394.53C70.1541 395.63 69.1441 396.18 67.8141 396.18C66.7441 396.18 65.8291 395.8 65.0691 395.04C64.3191 394.28 63.9441 393.35 63.9441 392.25C63.9441 391.16 64.3191 390.23 65.0691 389.46C65.8291 388.7 66.7441 388.32 67.8141 388.32C69.1441 388.32 70.1541 388.87 70.8441 389.97V388.5ZM65.7891 394.365C66.3591 394.935 67.0591 395.22 67.8891 395.22C68.7191 395.22 69.4191 394.935 69.9891 394.365C70.5591 393.785 70.8441 393.08 70.8441 392.25C70.8441 391.42 70.5591 390.72 69.9891 390.15C69.4191 389.57 68.7191 389.28 67.8891 389.28C67.0591 389.28 66.3591 389.57 65.7891 390.15C65.2191 390.72 64.9341 391.42 64.9341 392.25C64.9341 393.08 65.2191 393.785 65.7891 394.365ZM77.9503 388.32C79.0203 388.32 79.9303 388.7 80.6803 389.46C81.4403 390.22 81.8203 391.15 81.8203 392.25C81.8203 393.35 81.4403 394.28 80.6803 395.04C79.9303 395.8 79.0203 396.18 77.9503 396.18C76.6203 396.18 75.6103 395.63 74.9203 394.53V396H73.9303V385.5H74.9203V389.97C75.6103 388.87 76.6203 388.32 77.9503 388.32ZM75.7753 394.365C76.3453 394.935 77.0453 395.22 77.8753 395.22C78.7053 395.22 79.4053 394.935 79.9753 394.365C80.5453 393.785 80.8303 393.08 80.8303 392.25C80.8303 391.42 80.5453 390.72 79.9753 390.15C79.4053 389.57 78.7053 389.28 77.8753 389.28C77.0453 389.28 76.3453 389.57 75.7753 390.15C75.2053 390.72 74.9203 391.42 74.9203 392.25C74.9203 393.08 75.2053 393.785 75.7753 394.365ZM83.4664 396V385.05H84.4564V396H83.4664ZM90.0222 388.32C91.1422 388.32 92.0372 388.715 92.7072 389.505C93.3972 390.285 93.7422 391.21 93.7422 392.28C93.7422 392.33 93.7372 392.395 93.7272 392.475C93.7272 392.555 93.7222 392.645 93.7122 392.745H87.1272C87.2272 393.505 87.5472 394.11 88.0872 394.56C88.6272 395 89.3022 395.22 90.1122 395.22C90.6822 395.22 91.1722 395.105 91.5822 394.875C92.0022 394.635 92.3172 394.325 92.5272 393.945L93.3972 394.455C93.0672 394.995 92.6172 395.42 92.0472 395.73C91.4772 396.03 90.8272 396.18 90.0972 396.18C88.9172 396.18 87.9572 395.81 87.2172 395.07C86.4772 394.33 86.1072 393.39 86.1072 392.25C86.1072 391.12 86.4722 390.185 87.2022 389.445C87.9322 388.695 88.8722 388.32 90.0222 388.32ZM90.0222 389.28C89.6322 389.28 89.2722 389.34 88.9422 389.46C88.6122 389.58 88.3172 389.75 88.0572 389.97C87.8072 390.19 87.6022 390.455 87.4422 390.765C87.2822 391.075 87.1772 391.415 87.1272 391.785H92.7222C92.6122 390.985 92.3072 390.37 91.8072 389.94C91.2872 389.5 90.6922 389.28 90.0222 389.28ZM102.562 396.18C101.432 396.18 100.492 395.805 99.742 395.055C98.992 394.295 98.617 393.36 98.617 392.25C98.617 391.14 98.992 390.21 99.742 389.46C100.492 388.7 101.432 388.32 102.562 388.32C103.312 388.32 103.977 388.5 104.557 388.86C105.147 389.21 105.577 389.685 105.847 390.285L105.037 390.75C104.837 390.3 104.517 389.945 104.077 389.685C103.637 389.415 103.132 389.28 102.562 389.28C101.732 389.28 101.032 389.57 100.462 390.15C99.892 390.72 99.607 391.42 99.607 392.25C99.607 393.08 99.892 393.785 100.462 394.365C101.032 394.935 101.732 395.22 102.562 395.22C103.132 395.22 103.632 395.09 104.062 394.83C104.502 394.56 104.847 394.2 105.097 393.75L105.922 394.23C105.612 394.83 105.157 395.305 104.557 395.655C103.957 396.005 103.292 396.18 102.562 396.18ZM112.623 388.5H113.613V396H112.623V394.83C112.063 395.73 111.223 396.18 110.103 396.18C109.193 396.18 108.473 395.905 107.943 395.355C107.423 394.795 107.163 394.045 107.163 393.105V388.5H108.153V393.105C108.153 393.775 108.328 394.295 108.678 394.665C109.028 395.035 109.533 395.22 110.193 395.22C110.913 395.22 111.498 394.995 111.948 394.545C112.398 394.095 112.623 393.39 112.623 392.43V388.5ZM116.698 389.745C117.158 388.835 117.948 388.38 119.068 388.38V389.34C118.728 389.34 118.413 389.39 118.123 389.49C117.833 389.59 117.583 389.74 117.373 389.94C117.163 390.14 116.998 390.4 116.878 390.72C116.758 391.03 116.698 391.4 116.698 391.83V396H115.708V388.5H116.698V389.745ZM121.415 389.745C121.875 388.835 122.665 388.38 123.785 388.38V389.34C123.445 389.34 123.13 389.39 122.84 389.49C122.55 389.59 122.3 389.74 122.09 389.94C121.88 390.14 121.715 390.4 121.595 390.72C121.475 391.03 121.415 391.4 121.415 391.83V396H120.425V388.5H121.415V389.745ZM128.152 388.32C129.272 388.32 130.167 388.715 130.837 389.505C131.527 390.285 131.872 391.21 131.872 392.28C131.872 392.33 131.867 392.395 131.857 392.475C131.857 392.555 131.852 392.645 131.842 392.745H125.257C125.357 393.505 125.677 394.11 126.217 394.56C126.757 395 127.432 395.22 128.242 395.22C128.812 395.22 129.302 395.105 129.712 394.875C130.132 394.635 130.447 394.325 130.657 393.945L131.527 394.455C131.197 394.995 130.747 395.42 130.177 395.73C129.607 396.03 128.957 396.18 128.227 396.18C127.047 396.18 126.087 395.81 125.347 395.07C124.607 394.33 124.237 393.39 124.237 392.25C124.237 391.12 124.602 390.185 125.332 389.445C126.062 388.695 127.002 388.32 128.152 388.32ZM128.152 389.28C127.762 389.28 127.402 389.34 127.072 389.46C126.742 389.58 126.447 389.75 126.187 389.97C125.937 390.19 125.732 390.455 125.572 390.765C125.412 391.075 125.307 391.415 125.257 391.785H130.852C130.742 390.985 130.437 390.37 129.937 389.94C129.417 389.5 128.822 389.28 128.152 389.28ZM136.957 388.32C137.867 388.32 138.582 388.6 139.102 389.16C139.632 389.71 139.897 390.455 139.897 391.395V396H138.907V391.395C138.907 390.725 138.732 390.205 138.382 389.835C138.032 389.465 137.527 389.28 136.867 389.28C136.147 389.28 135.562 389.505 135.112 389.955C134.662 390.405 134.437 391.11 134.437 392.07V396H133.447V388.5H134.437V389.67C134.987 388.77 135.827 388.32 136.957 388.32ZM145.306 396.18C144.176 396.18 143.236 395.805 142.486 395.055C141.736 394.295 141.361 393.36 141.361 392.25C141.361 391.14 141.736 390.21 142.486 389.46C143.236 388.7 144.176 388.32 145.306 388.32C146.056 388.32 146.721 388.5 147.301 388.86C147.891 389.21 148.321 389.685 148.591 390.285L147.781 390.75C147.581 390.3 147.261 389.945 146.821 389.685C146.381 389.415 145.876 389.28 145.306 389.28C144.476 389.28 143.776 389.57 143.206 390.15C142.636 390.72 142.351 391.42 142.351 392.25C142.351 393.08 142.636 393.785 143.206 394.365C143.776 394.935 144.476 395.22 145.306 395.22C145.876 395.22 146.376 395.09 146.806 394.83C147.246 394.56 147.591 394.2 147.841 393.75L148.666 394.23C148.356 394.83 147.901 395.305 147.301 395.655C146.701 396.005 146.036 396.18 145.306 396.18ZM155.488 388.5H156.538L153.328 396.69C153.038 397.44 152.623 398.025 152.083 398.445C151.553 398.865 150.958 399.05 150.298 399V398.07C151.198 398.18 151.883 397.66 152.353 396.51L152.548 396.045L149.188 388.5H150.238L153.058 394.785L155.488 388.5Z" fill="white"/>
<path d="M148.338 503.28C151.378 503.28 153.538 501.68 153.538 498.98C153.538 496.02 151.158 495.28 149.038 494.64C146.858 493.98 146.518 493.54 146.518 492.9C146.518 492.34 147.018 491.84 148.018 491.84C149.298 491.84 149.958 492.46 150.438 493.46L153.138 491.88C152.118 489.82 150.318 488.72 148.018 488.72C145.598 488.72 143.318 490.28 143.318 492.98C143.318 495.66 145.358 496.66 147.438 497.24C149.538 497.82 150.338 498.16 150.338 499.02C150.338 499.56 149.958 500.16 148.438 500.16C146.858 500.16 145.998 499.38 145.498 498.22L142.738 499.82C143.518 501.88 145.398 503.28 148.338 503.28ZM161.72 503.28C165.74 503.28 169 500.12 169 496C169 491.88 165.74 488.72 161.72 488.72C157.7 488.72 154.44 491.88 154.44 496C154.44 500.12 157.7 503.28 161.72 503.28ZM161.72 500.16C159.44 500.16 157.64 498.5 157.64 496C157.64 493.5 159.44 491.84 161.72 491.84C164 491.84 165.8 493.5 165.8 496C165.8 498.5 164 500.16 161.72 500.16ZM177.482 503.28C181.502 503.28 184.762 500.12 184.762 496C184.762 491.88 181.502 488.72 177.482 488.72C173.462 488.72 170.202 491.88 170.202 496C170.202 500.12 173.462 503.28 177.482 503.28ZM177.482 500.16C175.202 500.16 173.402 498.5 173.402 496C173.402 493.5 175.202 491.84 177.482 491.84C179.762 491.84 181.562 493.5 181.562 496C181.562 498.5 179.762 500.16 177.482 500.16ZM194.363 489V496.6L188.963 489H186.563V503H189.763V495.4L195.163 503H197.563V489H194.363Z" fill="white"/>
<path d="M121.13 527.5C122.07 527.5 122.855 527.815 123.485 528.445C124.115 529.075 124.43 529.86 124.43 530.8C124.43 531.74 124.115 532.525 123.485 533.155C122.855 533.785 122.07 534.1 121.13 534.1H118.43V538H117.38V527.5H121.13ZM121.13 533.11C121.78 533.11 122.315 532.895 122.735 532.465C123.165 532.035 123.38 531.48 123.38 530.8C123.38 530.13 123.165 529.58 122.735 529.15C122.315 528.71 121.78 528.49 121.13 528.49H118.43V533.11H121.13ZM131.927 530.5H132.917V538H131.927V536.53C131.237 537.63 130.227 538.18 128.897 538.18C127.827 538.18 126.912 537.8 126.152 537.04C125.402 536.28 125.027 535.35 125.027 534.25C125.027 533.16 125.402 532.23 126.152 531.46C126.912 530.7 127.827 530.32 128.897 530.32C130.227 530.32 131.237 530.87 131.927 531.97V530.5ZM126.872 536.365C127.442 536.935 128.142 537.22 128.972 537.22C129.802 537.22 130.502 536.935 131.072 536.365C131.642 535.785 131.927 535.08 131.927 534.25C131.927 533.42 131.642 532.72 131.072 532.15C130.502 531.57 129.802 531.28 128.972 531.28C128.142 531.28 127.442 531.57 126.872 532.15C126.302 532.72 126.017 533.42 126.017 534.25C126.017 535.08 126.302 535.785 126.872 536.365ZM138.523 530.32C139.433 530.32 140.148 530.6 140.668 531.16C141.198 531.71 141.463 532.455 141.463 533.395V538H140.473V533.395C140.473 532.725 140.298 532.205 139.948 531.835C139.598 531.465 139.093 531.28 138.433 531.28C137.713 531.28 137.128 531.505 136.678 531.955C136.228 532.405 136.003 533.11 136.003 534.07V538H135.013V530.5H136.003V531.67C136.553 530.77 137.393 530.32 138.523 530.32ZM146.872 538.18C145.742 538.18 144.802 537.805 144.052 537.055C143.302 536.295 142.927 535.36 142.927 534.25C142.927 533.14 143.302 532.21 144.052 531.46C144.802 530.7 145.742 530.32 146.872 530.32C147.622 530.32 148.287 530.5 148.867 530.86C149.457 531.21 149.887 531.685 150.157 532.285L149.347 532.75C149.147 532.3 148.827 531.945 148.387 531.685C147.947 531.415 147.442 531.28 146.872 531.28C146.042 531.28 145.342 531.57 144.772 532.15C144.202 532.72 143.917 533.42 143.917 534.25C143.917 535.08 144.202 535.785 144.772 536.365C145.342 536.935 146.042 537.22 146.872 537.22C147.442 537.22 147.942 537.09 148.372 536.83C148.812 536.56 149.157 536.2 149.407 535.75L150.232 536.23C149.922 536.83 149.467 537.305 148.867 537.655C148.267 538.005 147.602 538.18 146.872 538.18ZM158.03 530.5H159.02V538H158.03V536.53C157.34 537.63 156.33 538.18 155 538.18C153.93 538.18 153.015 537.8 152.255 537.04C151.505 536.28 151.13 535.35 151.13 534.25C151.13 533.16 151.505 532.23 152.255 531.46C153.015 530.7 153.93 530.32 155 530.32C156.33 530.32 157.34 530.87 158.03 531.97V530.5ZM152.975 536.365C153.545 536.935 154.245 537.22 155.075 537.22C155.905 537.22 156.605 536.935 157.175 536.365C157.745 535.785 158.03 535.08 158.03 534.25C158.03 533.42 157.745 532.72 157.175 532.15C156.605 531.57 155.905 531.28 155.075 531.28C154.245 531.28 153.545 531.57 152.975 532.15C152.405 532.72 152.12 533.42 152.12 534.25C152.12 535.08 152.405 535.785 152.975 536.365ZM167.176 538H165.856L162.106 534.385V538H161.116V527.5H162.106V533.815L165.676 530.5H167.026L163.156 534.1L167.176 538ZM171.246 530.32C172.366 530.32 173.261 530.715 173.931 531.505C174.621 532.285 174.966 533.21 174.966 534.28C174.966 534.33 174.961 534.395 174.951 534.475C174.951 534.555 174.946 534.645 174.936 534.745H168.351C168.451 535.505 168.771 536.11 169.311 536.56C169.851 537 170.526 537.22 171.336 537.22C171.906 537.22 172.396 537.105 172.806 536.875C173.226 536.635 173.541 536.325 173.751 535.945L174.621 536.455C174.291 536.995 173.841 537.42 173.271 537.73C172.701 538.03 172.051 538.18 171.321 538.18C170.141 538.18 169.181 537.81 168.441 537.07C167.701 536.33 167.331 535.39 167.331 534.25C167.331 533.12 167.696 532.185 168.426 531.445C169.156 530.695 170.096 530.32 171.246 530.32ZM171.246 531.28C170.856 531.28 170.496 531.34 170.166 531.46C169.836 531.58 169.541 531.75 169.281 531.97C169.031 532.19 168.826 532.455 168.666 532.765C168.506 533.075 168.401 533.415 168.351 533.785H173.946C173.836 532.985 173.531 532.37 173.031 531.94C172.511 531.5 171.916 531.28 171.246 531.28ZM181.491 537.01H186.291V538H180.441V527.5H181.491V537.01ZM188.65 528.7C188.51 528.84 188.34 528.91 188.14 528.91C187.94 528.91 187.77 528.84 187.63 528.7C187.49 528.56 187.42 528.39 187.42 528.19C187.42 527.99 187.49 527.82 187.63 527.68C187.77 527.54 187.94 527.47 188.14 527.47C188.34 527.47 188.51 527.54 188.65 527.68C188.79 527.82 188.86 527.99 188.86 528.19C188.86 528.39 188.79 528.56 188.65 528.7ZM187.645 538V530.5H188.635V538H187.645ZM191.516 532.465C191.516 532.805 191.666 533.075 191.966 533.275C192.266 533.475 192.631 533.63 193.061 533.74C193.371 533.82 193.691 533.91 194.021 534.01C194.361 534.1 194.671 534.23 194.951 534.4C195.231 534.56 195.456 534.77 195.626 535.03C195.806 535.29 195.896 535.62 195.896 536.02C195.896 536.66 195.641 537.18 195.131 537.58C194.641 537.98 193.991 538.18 193.181 538.18C192.461 538.18 191.846 538.02 191.336 537.7C190.836 537.38 190.486 536.965 190.286 536.455L191.126 535.96C191.266 536.35 191.516 536.66 191.876 536.89C192.236 537.11 192.671 537.22 193.181 537.22C193.671 537.22 194.081 537.125 194.411 536.935C194.741 536.745 194.906 536.44 194.906 536.02C194.906 535.68 194.756 535.41 194.456 535.21C194.156 535.01 193.791 534.855 193.361 534.745C193.041 534.665 192.716 534.58 192.386 534.49C192.056 534.39 191.751 534.26 191.471 534.1C191.191 533.93 190.961 533.72 190.781 533.47C190.611 533.21 190.526 532.875 190.526 532.465C190.526 531.855 190.766 531.345 191.246 530.935C191.746 530.525 192.361 530.32 193.091 530.32C193.701 530.32 194.236 530.455 194.696 530.725C195.156 530.995 195.496 531.37 195.716 531.85L194.891 532.33C194.611 531.63 194.011 531.28 193.091 531.28C192.661 531.28 192.291 531.385 191.981 531.595C191.671 531.795 191.516 532.085 191.516 532.465ZM201.229 531.46H199.069V536.005C199.069 536.325 199.114 536.57 199.204 536.74C199.294 536.9 199.429 537.015 199.609 537.085C199.789 537.145 200.014 537.175 200.284 537.175C200.554 537.165 200.869 537.15 201.229 537.13V538C200.179 538.16 199.389 538.085 198.859 537.775C198.339 537.465 198.079 536.875 198.079 536.005V531.46H196.504V530.5H198.079V528.7L199.069 528.4V530.5H201.229V531.46ZM203.884 528.7C203.744 528.84 203.574 528.91 203.374 528.91C203.174 528.91 203.004 528.84 202.864 528.7C202.724 528.56 202.654 528.39 202.654 528.19C202.654 527.99 202.724 527.82 202.864 527.68C203.004 527.54 203.174 527.47 203.374 527.47C203.574 527.47 203.744 527.54 203.884 527.68C204.024 527.82 204.094 527.99 204.094 528.19C204.094 528.39 204.024 528.56 203.884 528.7ZM202.879 538V530.5H203.869V538H202.879ZM209.48 530.32C210.39 530.32 211.105 530.6 211.625 531.16C212.155 531.71 212.42 532.455 212.42 533.395V538H211.43V533.395C211.43 532.725 211.255 532.205 210.905 531.835C210.555 531.465 210.05 531.28 209.39 531.28C208.67 531.28 208.085 531.505 207.635 531.955C207.185 532.405 206.96 533.11 206.96 534.07V538H205.97V530.5H206.96V531.67C207.51 530.77 208.35 530.32 209.48 530.32ZM220.784 530.5H221.774V537.7C221.774 538.78 221.404 539.63 220.664 540.25C219.924 540.87 219.039 541.18 218.009 541.18C216.259 541.18 215.074 540.57 214.454 539.35L215.324 538.855C215.774 539.765 216.669 540.22 218.009 540.22C218.879 540.22 219.559 539.995 220.049 539.545C220.539 539.095 220.784 538.48 220.784 537.7V536.53C220.094 537.63 219.084 538.18 217.754 538.18C216.684 538.18 215.769 537.8 215.009 537.04C214.259 536.28 213.884 535.35 213.884 534.25C213.884 533.16 214.259 532.23 215.009 531.46C215.769 530.7 216.684 530.32 217.754 530.32C219.084 530.32 220.094 530.87 220.784 531.97V530.5ZM215.729 536.365C216.299 536.935 216.999 537.22 217.829 537.22C218.659 537.22 219.359 536.935 219.929 536.365C220.499 535.785 220.784 535.08 220.784 534.25C220.784 533.42 220.499 532.72 219.929 532.15C219.359 531.57 218.659 531.28 217.829 531.28C216.999 531.28 216.299 531.57 215.729 532.15C215.159 532.72 214.874 533.42 214.874 534.25C214.874 535.08 215.159 535.785 215.729 536.365ZM157.714 541.5C158.654 541.5 159.439 541.815 160.069 542.445C160.699 543.075 161.014 543.86 161.014 544.8C161.014 545.74 160.699 546.525 160.069 547.155C159.439 547.785 158.654 548.1 157.714 548.1H155.014V552H153.964V541.5H157.714ZM157.714 547.11C158.364 547.11 158.899 546.895 159.319 546.465C159.749 546.035 159.964 545.48 159.964 544.8C159.964 544.13 159.749 543.58 159.319 543.15C158.899 542.71 158.364 542.49 157.714 542.49H155.014V547.11H157.714ZM163.505 545.745C163.965 544.835 164.755 544.38 165.875 544.38V545.34C165.535 545.34 165.22 545.39 164.93 545.49C164.64 545.59 164.39 545.74 164.18 545.94C163.97 546.14 163.805 546.4 163.685 546.72C163.565 547.03 163.505 547.4 163.505 547.83V552H162.515V544.5H163.505V545.745ZM168.237 542.7C168.097 542.84 167.927 542.91 167.727 542.91C167.527 542.91 167.357 542.84 167.217 542.7C167.077 542.56 167.007 542.39 167.007 542.19C167.007 541.99 167.077 541.82 167.217 541.68C167.357 541.54 167.527 541.47 167.727 541.47C167.927 541.47 168.097 541.54 168.237 541.68C168.377 541.82 168.447 541.99 168.447 542.19C168.447 542.39 168.377 542.56 168.237 542.7ZM167.232 552V544.5H168.222V552H167.232ZM173.818 552.18C172.688 552.18 171.748 551.805 170.998 551.055C170.248 550.295 169.873 549.36 169.873 548.25C169.873 547.14 170.248 546.21 170.998 545.46C171.748 544.7 172.688 544.32 173.818 544.32C174.568 544.32 175.233 544.5 175.813 544.86C176.403 545.21 176.833 545.685 177.103 546.285L176.293 546.75C176.093 546.3 175.773 545.945 175.333 545.685C174.893 545.415 174.388 545.28 173.818 545.28C172.988 545.28 172.288 545.57 171.718 546.15C171.148 546.72 170.863 547.42 170.863 548.25C170.863 549.08 171.148 549.785 171.718 550.365C172.288 550.935 172.988 551.22 173.818 551.22C174.388 551.22 174.888 551.09 175.318 550.83C175.758 550.56 176.103 550.2 176.353 549.75L177.178 550.23C176.868 550.83 176.413 551.305 175.813 551.655C175.213 552.005 174.548 552.18 173.818 552.18ZM181.991 544.32C183.111 544.32 184.006 544.715 184.676 545.505C185.366 546.285 185.711 547.21 185.711 548.28C185.711 548.33 185.706 548.395 185.696 548.475C185.696 548.555 185.691 548.645 185.681 548.745H179.096C179.196 549.505 179.516 550.11 180.056 550.56C180.596 551 181.271 551.22 182.081 551.22C182.651 551.22 183.141 551.105 183.551 550.875C183.971 550.635 184.286 550.325 184.496 549.945L185.366 550.455C185.036 550.995 184.586 551.42 184.016 551.73C183.446 552.03 182.796 552.18 182.066 552.18C180.886 552.18 179.926 551.81 179.186 551.07C178.446 550.33 178.076 549.39 178.076 548.25C178.076 547.12 178.441 546.185 179.171 545.445C179.901 544.695 180.841 544.32 181.991 544.32ZM181.991 545.28C181.601 545.28 181.241 545.34 180.911 545.46C180.581 545.58 180.286 545.75 180.026 545.97C179.776 546.19 179.571 546.455 179.411 546.765C179.251 547.075 179.146 547.415 179.096 547.785H184.691C184.581 546.985 184.276 546.37 183.776 545.94C183.256 545.5 182.661 545.28 181.991 545.28Z" fill="white"/>
<path d="M69.4204 621H59.0204V624.08H62.6204V635H65.8204V624.08H69.4204V621ZM76.7004 635.28C80.7204 635.28 83.9804 632.12 83.9804 628C83.9804 623.88 80.7204 620.72 76.7004 620.72C72.6804 620.72 69.4204 623.88 69.4204 628C69.4204 632.12 72.6804 635.28 76.7004 635.28ZM76.7004 632.16C74.4204 632.16 72.6204 630.5 72.6204 628C72.6204 625.5 74.4204 623.84 76.7004 623.84C78.9804 623.84 80.7804 625.5 80.7804 628C80.7804 630.5 78.9804 632.16 76.7004 632.16ZM99.4621 627.74C100.222 627.08 100.682 626.16 100.682 625C100.682 622.58 98.7021 621 96.2621 621H90.7821V635H96.6621C99.1621 635 101.182 633.38 101.182 630.9C101.182 629.48 100.502 628.4 99.4621 627.74ZM96.2621 624C97.0021 624 97.4821 624.52 97.4821 625.24C97.4821 625.96 96.9821 626.48 96.2621 626.48H93.9821V624H96.2621ZM96.6621 632H93.9821V629.32H96.6621C97.4621 629.32 97.9821 629.88 97.9821 630.66C97.9821 631.44 97.4621 632 96.6621 632ZM105.974 631.92V629.44H110.974V626.4H105.974V624.08H111.474V621H102.774V635H111.574V631.92H105.974ZM37.052 654.28C39.612 654.28 41.852 653.02 43.052 651.04L40.292 649.44C39.692 650.52 38.472 651.16 37.052 651.16C34.572 651.16 32.972 649.5 32.972 647C32.972 644.5 34.572 642.84 37.052 642.84C38.472 642.84 39.672 643.48 40.292 644.56L43.052 642.96C41.832 640.98 39.592 639.72 37.052 639.72C32.832 639.72 29.772 642.88 29.772 647C29.772 651.12 32.832 654.28 37.052 654.28ZM51.0364 654.28C55.0564 654.28 58.3164 651.12 58.3164 647C58.3164 642.88 55.0564 639.72 51.0364 639.72C47.0164 639.72 43.7564 642.88 43.7564 647C43.7564 651.12 47.0164 654.28 51.0364 654.28ZM51.0364 651.16C48.7564 651.16 46.9564 649.5 46.9564 647C46.9564 644.5 48.7564 642.84 51.0364 642.84C53.3164 642.84 55.1164 644.5 55.1164 647C55.1164 649.5 53.3164 651.16 51.0364 651.16ZM67.9181 640V647.6L62.5181 640H60.1181V654H63.3181V646.4L68.7181 654H71.1181V640H67.9181ZM82.0165 643.08V640H73.5165V654H76.7165V648.86H81.9165V645.78H76.7165V643.08H82.0165ZM83.9071 640V654H87.1071V640H83.9071ZM96.8726 654H100.313L97.3326 648.86C98.8726 648.08 99.9126 646.52 99.9126 644.8C99.9126 642.14 97.7726 640 95.1126 640H89.5126V654H92.7126V649.4H94.2326L96.8726 654ZM92.7126 643H95.1126C95.9926 643 96.7126 643.78 96.7126 644.8C96.7126 645.82 95.9926 646.6 95.1126 646.6H92.7126V643ZM115.817 640H112.617L108.817 646.22L105.017 640H101.817V654H105.017V645.86L108.637 651.8H108.997L112.617 645.86V654H115.817V640ZM121.423 650.92V648.44H126.423V645.4H121.423V643.08H126.923V640H118.223V654H127.023V650.92H121.423ZM134.429 640H128.829V654H134.429C138.289 654 141.229 650.96 141.229 647C141.229 643.04 138.289 640 134.429 640ZM134.429 650.92H132.029V643.08H134.429C136.629 643.08 138.149 644.6 138.149 647C138.149 649.4 136.629 650.92 134.429 650.92Z" fill="white"/>
<path d="M55.25 693.01H60.3499V694H54.2V683.5H60.275V684.49H55.25V688.21H59.9V689.2H55.25V693.01ZM65.514 686.32C66.424 686.32 67.1391 686.6 67.6591 687.16C68.1891 687.71 68.4541 688.455 68.4541 689.395V694H67.4641V689.395C67.4641 688.725 67.2891 688.205 66.9391 687.835C66.5891 687.465 66.0841 687.28 65.4241 687.28C64.7041 687.28 64.1191 687.505 63.6691 687.955C63.2191 688.405 62.994 689.11 62.994 690.07V694H62.0041V686.5H62.994V687.67C63.544 686.77 64.384 686.32 65.514 686.32ZM76.8183 683.5H77.8084V694H76.8183V692.53C76.1283 693.63 75.1183 694.18 73.7883 694.18C72.7183 694.18 71.8034 693.8 71.0434 693.04C70.2934 692.28 69.9184 691.35 69.9184 690.25C69.9184 689.16 70.2934 688.23 71.0434 687.46C71.8034 686.7 72.7183 686.32 73.7883 686.32C75.1183 686.32 76.1283 686.87 76.8183 687.97V683.5ZM71.7633 692.365C72.3333 692.935 73.0334 693.22 73.8634 693.22C74.6934 693.22 75.3934 692.935 75.9634 692.365C76.5334 691.785 76.8183 691.08 76.8183 690.25C76.8183 689.42 76.5334 688.72 75.9634 688.15C75.3934 687.57 74.6934 687.28 73.8634 687.28C73.0334 687.28 72.3333 687.57 71.7633 688.15C71.1933 688.72 70.9084 689.42 70.9084 690.25C70.9084 691.08 71.1933 691.785 71.7633 692.365ZM87.8545 683.5C89.2845 683.5 90.4645 684.01 91.3945 685.03C92.3345 686.03 92.8044 687.27 92.8044 688.75C92.8044 690.23 92.3345 691.475 91.3945 692.485C90.4645 693.495 89.2845 694 87.8545 694H83.8044V683.5H87.8545ZM87.8545 693.01C89.0045 693.01 89.9444 692.6 90.6744 691.78C91.4144 690.95 91.7845 689.94 91.7845 688.75C91.7845 687.56 91.4144 686.55 90.6744 685.72C89.9444 684.9 89.0045 684.49 87.8545 684.49H84.8545V693.01H87.8545ZM100.9 686.5H101.89V694H100.9V692.53C100.21 693.63 99.2003 694.18 97.8703 694.18C96.8003 694.18 95.8853 693.8 95.1253 693.04C94.3753 692.28 94.0003 691.35 94.0003 690.25C94.0003 689.16 94.3753 688.23 95.1253 687.46C95.8853 686.7 96.8003 686.32 97.8703 686.32C99.2003 686.32 100.21 686.87 100.9 687.97V686.5ZM95.8453 692.365C96.4153 692.935 97.1153 693.22 97.9453 693.22C98.7753 693.22 99.4753 692.935 100.045 692.365C100.615 691.785 100.9 691.08 100.9 690.25C100.9 689.42 100.615 688.72 100.045 688.15C99.4753 687.57 98.7753 687.28 97.9453 687.28C97.1153 687.28 96.4153 687.57 95.8453 688.15C95.2753 688.72 94.9904 689.42 94.9904 690.25C94.9904 691.08 95.2753 691.785 95.8453 692.365ZM107.962 687.46H105.802V692.005C105.802 692.325 105.847 692.57 105.937 692.74C106.027 692.9 106.162 693.015 106.342 693.085C106.522 693.145 106.747 693.175 107.017 693.175C107.287 693.165 107.602 693.15 107.962 693.13V694C106.912 694.16 106.122 694.085 105.592 693.775C105.072 693.465 104.812 692.875 104.812 692.005V687.46H103.237V686.5H104.812V684.7L105.802 684.4V686.5H107.962V687.46ZM112.622 686.32C113.742 686.32 114.637 686.715 115.307 687.505C115.997 688.285 116.342 689.21 116.342 690.28C116.342 690.33 116.337 690.395 116.327 690.475C116.327 690.555 116.322 690.645 116.312 690.745H109.727C109.827 691.505 110.147 692.11 110.687 692.56C111.227 693 111.902 693.22 112.712 693.22C113.282 693.22 113.772 693.105 114.182 692.875C114.602 692.635 114.917 692.325 115.127 691.945L115.997 692.455C115.667 692.995 115.217 693.42 114.647 693.73C114.077 694.03 113.427 694.18 112.697 694.18C111.517 694.18 110.557 693.81 109.817 693.07C109.077 692.33 108.707 691.39 108.707 690.25C108.707 689.12 109.072 688.185 109.802 687.445C110.532 686.695 111.472 686.32 112.622 686.32ZM112.622 687.28C112.232 687.28 111.872 687.34 111.542 687.46C111.212 687.58 110.917 687.75 110.657 687.97C110.407 688.19 110.202 688.455 110.042 688.765C109.882 689.075 109.777 689.415 109.727 689.785H115.322C115.212 688.985 114.907 688.37 114.407 687.94C113.887 687.5 113.292 687.28 112.622 687.28Z" fill="white"/>
</svg>
