<svg width="255" height="51" viewBox="0 0 255 51" fill="none" xmlns="http://www.w3.org/2000/svg">
<path d="M224.671 20.7822C224.671 22.0179 226.732 21.4562 226.879 22.1302C227.321 23.0289 226.143 23.2535 226.438 24.1522C235.713 24.9386 245.136 25.6126 254.411 27.4099C252.792 27.9716 251.025 28.7579 249.258 28.3086C246.461 27.6346 243.516 27.5223 240.719 27.2976C234.83 26.9606 228.941 25.7249 222.904 25.9496C222.462 25.9496 222.021 25.9496 220.696 25.9496C222.61 26.5112 224.082 26.2866 224.671 27.7469C219.665 28.0839 214.807 27.0729 209.801 26.8483C209.654 27.2976 209.506 27.8593 209.359 28.3086C224.229 28.8703 238.952 29.6566 254.264 32.128C251.319 33.476 248.964 33.0267 246.755 32.802C242.044 32.465 237.333 31.791 232.621 31.2293C231.885 31.117 231.002 31.117 230.56 31.454C229.088 32.802 227.616 32.0157 225.702 31.791C226.732 31.0046 227.468 32.2403 228.352 31.117C224.524 30.2183 220.843 31.5663 217.31 31.117C213.629 30.6676 209.948 30.6676 205.826 30.443C207.151 31.6786 209.065 31.5663 210.095 31.5663C213.629 31.5663 217.015 32.2403 220.401 32.128C224.082 32.0157 227.616 32.5773 231.149 32.9143C233.505 33.139 235.713 32.802 238.069 32.5773C238.805 32.465 238.363 32.802 238.51 33.139C238.805 33.9253 239.983 33.813 241.013 33.813C244.547 33.7007 247.933 34.2624 251.467 35.0487C251.908 35.161 252.644 35.0487 252.644 35.6104C252.644 36.172 252.055 36.172 251.614 36.2844C248.964 37.2954 246.461 36.172 243.811 36.0597C242.338 36.0597 240.866 34.824 239.541 36.509C239.247 36.8461 238.658 36.6214 238.069 36.509C234.977 35.835 231.738 36.0597 228.499 35.2734C226.879 34.824 224.671 35.3857 222.61 35.7227C219.812 36.172 217.015 35.161 214.218 34.9364C211.862 34.824 209.212 34.487 206.856 34.3747C201.85 34.15 196.992 33.3637 191.397 34.0377C194.784 34.9364 198.023 35.0487 200.967 35.0487C207.74 35.0487 214.365 36.9584 221.137 36.3967C226.143 38.9804 232.18 37.6324 237.627 38.7557C241.013 39.4297 244.694 39.4298 248.228 39.7668C248.522 39.7668 248.816 39.9914 248.964 40.4408C234.977 38.6434 220.99 39.3174 206.562 37.9694C209.948 39.6544 214.07 37.7447 217.31 40.2161C211.715 41.7888 206.267 39.4298 200.967 40.1038C202.881 41.2271 205.973 41.0024 207.445 42.7998C207.74 43.1368 207.592 43.6985 206.709 43.8108C208.329 44.5971 209.065 42.1258 210.684 43.4738C210.831 43.0245 210.831 42.5751 210.979 42.2381C211.568 42.0134 212.304 42.9121 212.009 43.4738C212.009 43.5861 212.009 43.6985 212.009 43.8108C224.965 44.1478 237.922 45.1588 251.172 46.7315C249.994 47.6302 249.258 47.7425 248.228 47.6302C243.369 47.2932 238.363 46.8438 233.505 46.5068C231.296 46.2822 229.088 46.1698 226.879 46.1698C221.579 46.0575 216.426 45.6082 211.273 45.2712C205.09 44.9342 198.759 45.1588 192.575 45.1588C191.692 45.1588 190.514 44.8218 189.925 45.9452C200.231 46.1698 210.537 46.3945 220.843 46.8438C231.149 47.2932 241.602 47.8549 251.614 50.3262C248.522 51.1126 245.43 51.1126 242.486 50.7756C238.805 50.3262 235.124 49.8769 231.443 49.7645C223.493 49.5399 215.543 48.9782 207.445 48.7535C195.078 48.4165 182.711 48.5289 170.491 48.4165C162.982 48.4165 155.473 48.1919 147.965 48.4165C135.598 48.7535 123.083 48.5289 110.716 48.8659C101.588 49.0905 92.4596 48.9782 83.3314 49.2029C75.5283 49.4275 67.7252 49.6522 59.9221 50.1016C50.7939 50.5509 41.6657 50.2139 32.5376 50.4386C29.8874 50.5509 27.2373 50.5509 24.44 50.3262C25.0289 49.3152 26.0595 49.2029 27.0901 49.3152C32.832 49.4275 38.7212 48.9782 44.4631 48.6412C47.1132 48.4165 49.9105 48.3042 52.7079 48.7535C54.4746 49.0905 56.3886 48.5289 58.3026 48.4165C63.4556 48.0795 68.4613 47.8549 73.6143 47.6302C81.8592 47.2932 90.104 46.6192 98.3488 46.9562C103.649 47.1809 108.949 46.3945 114.249 46.8438C115.869 46.9562 117.341 46.3945 118.814 46.0575C114.691 46.0575 110.716 46.0575 106.594 46.0575C99.9683 46.0575 93.343 45.9452 86.7177 46.0575C81.123 46.1698 75.5283 46.2822 69.9336 46.7315C68.1669 46.8438 66.1057 46.7315 64.3389 46.8438C57.4192 46.9562 50.3522 47.1809 43.4325 47.1809C39.7518 47.1809 36.071 47.0685 32.3903 47.6302C30.7708 47.8549 29.593 46.5068 27.8262 47.1809C27.9735 47.5179 28.1207 47.8549 28.2679 48.4165C26.9429 48.4165 25.4706 48.7535 24.7344 48.3042C21.7899 46.5068 18.1092 47.0685 14.8701 46.5068C13.6923 46.2822 12.22 46.3945 11.9255 45.2712C11.6311 44.1478 13.2506 44.0355 13.8395 43.1368C10.8949 42.0135 10.6005 38.9804 7.95038 37.1831C6.91978 37.2954 7.36146 39.4297 5.0058 38.3064C5.30026 40.3284 8.0976 41.4518 6.91977 43.5861C5.30026 43.9231 4.56412 42.9121 3.9752 42.1258C1.47232 38.8681 -0.294428 35.2734 -0.1472 31.6786C2.91169e-05 26.0619 -0.1472 20.3328 2.35569 14.9408C2.50292 14.6038 2.65014 14.1544 2.9446 13.8174C3.53352 13.1434 3.82797 11.9077 5.44749 12.1324C6.91978 12.3571 7.21423 13.3681 7.21423 14.2668C7.21423 15.3901 8.24483 15.7271 9.56989 16.2888C10.1588 15.1654 9.86435 13.8174 11.3366 13.2557C11.4839 13.2557 11.6311 12.9187 11.4839 12.9187C9.42266 11.009 12.3672 11.009 13.1034 10.1104C11.0422 8.53768 10.306 6.62799 10.4533 4.3813C9.42266 4.15663 8.39206 4.04429 7.36146 4.3813C6.18363 4.83064 5.88917 3.93196 5.30026 3.59495C5.74195 3.14561 5.74195 2.69627 6.91977 2.4716C12.22 1.7976 17.373 1.01125 22.8205 0.786583C36.66 0.337243 50.4995 0.112574 64.4862 0.000239056C72.731 -0.112096 80.9758 0.337243 89.2206 0.898917C91.7235 1.01125 94.0791 0.112574 96.582 0.449578C102.029 1.23592 107.624 0.674248 113.072 0.786583C118.077 0.898917 123.083 0.337243 128.236 0.786583C136.775 1.57293 145.315 1.01125 153.854 1.34826C160.479 1.57293 166.957 1.68526 173.583 2.1346C181.827 2.69627 190.072 3.25795 198.464 3.70729C206.267 4.15663 214.07 4.15663 221.579 5.39231C226.585 6.17865 231.591 6.29099 236.449 7.302C239.247 7.86367 242.191 8.65002 245.136 8.87469C246.608 8.98702 245.725 9.66103 246.166 10.1104C243.369 9.43636 240.572 9.43636 237.774 8.98702C234.83 8.42535 231.738 8.20068 228.793 9.32403C226.732 10.1104 224.376 9.5487 222.315 9.32403C215.248 8.42535 208.034 7.97601 200.967 7.302C192.575 6.51566 184.036 6.17865 175.644 5.61698C168.724 5.16764 161.804 5.16764 154.885 4.83064C146.787 4.49363 138.984 4.94297 131.034 4.49363C126.764 4.26896 122.494 4.26896 118.225 4.15663C115.28 4.04429 112.335 5.16764 109.244 4.3813C109.685 4.60597 110.127 4.94297 110.422 4.94297C117.783 4.94297 124.997 6.51566 132.359 6.29099C136.923 6.17865 141.487 6.40332 146.051 6.965C148.259 7.18967 150.468 6.62799 152.823 6.85266C158.124 7.41433 163.571 7.18967 168.871 7.52667C177.558 7.97601 186.097 7.86367 194.636 8.42535C203.912 8.98702 213.187 10.1104 222.463 11.7954C226.732 12.5817 231.296 13.0311 235.86 13.2557C236.302 13.2557 236.596 13.3681 236.891 13.5927C233.652 13.7051 230.413 13.5927 227.174 13.1434C226.732 14.0421 228.204 13.8174 228.352 14.7161C221.579 16.0641 214.659 13.5927 207.887 14.6038C209.359 15.7271 211.42 15.3901 213.04 15.3901C218.046 15.5024 222.904 16.4011 227.763 16.9628C229.677 17.1875 231.885 16.9628 233.652 17.6368C234.682 18.0861 236.891 16.7381 237.038 18.7602C239.835 18.1985 242.044 19.9958 244.841 19.7712C247.639 19.5465 250.289 20.2205 252.939 20.6698C253.528 20.7822 254.411 20.8945 254.558 21.5685C254.706 22.3549 253.822 22.5795 253.086 22.8042C250.73 23.5905 248.375 22.4672 246.019 22.4672C245.43 22.4672 244.694 22.2425 243.958 22.2425C237.774 22.3549 231.149 21.2315 224.671 20.7822C220.401 20.4452 216.279 19.9958 212.009 19.6588C212.009 19.8835 212.009 19.9958 212.009 20.2205C216.132 20.5575 220.254 21.3438 224.671 20.7822ZM206.267 22.2425C209.948 23.9275 213.629 23.2535 217.162 23.3659C213.776 22.8042 210.243 22.2425 206.267 22.2425Z" fill="white"/>
</svg>
