<svg width="746" height="488" viewBox="0 0 746 488" fill="none" xmlns="http://www.w3.org/2000/svg">
<g clip-path="url(#clip0_510_27)">
<path d="M249 208.016V68.9846L372.726 0L497 68.9846V208.016L372.726 277L249 208.016Z" fill="#ED0259"/>
<path d="M498 208.016V68.9846L621.725 0L746 68.9846V208.016L621.725 277L498 208.016Z" fill="#ED0259"/>
<path d="M125.25 417.016V277.984L248.476 209L372.25 277.984V417.016L248.476 486L125.25 417.016Z" fill="#ED0259"/>
<path d="M373.5 417.016V277.984L497.225 209L621.5 277.984V417.016L497.225 486L373.5 417.016Z" fill="#ED0259"/>
<path d="M0 208.016V68.9846L123.725 0L248 68.9846V208.016L123.725 277L0 208.016Z" fill="#ED0259"/>
<path d="M99.8804 83.0001H84.2804V87.6201H89.6804V104H94.4804V87.6201H99.8804V83.0001ZM110.8 104.42C116.83 104.42 121.72 99.6801 121.72 93.5001C121.72 87.3201 116.83 82.5801 110.8 82.5801C104.77 82.5801 99.8804 87.3201 99.8804 93.5001C99.8804 99.6801 104.77 104.42 110.8 104.42ZM110.8 99.7401C107.38 99.7401 104.68 97.2501 104.68 93.5001C104.68 89.7501 107.38 87.2601 110.8 87.2601C114.22 87.2601 116.92 89.7501 116.92 93.5001C116.92 97.2501 114.22 99.7401 110.8 99.7401ZM144.943 93.1101C146.083 92.1201 146.773 90.7401 146.773 89.0001C146.773 85.3701 143.803 83.0001 140.143 83.0001H131.923V104H140.743C144.493 104 147.523 101.57 147.523 97.8501C147.523 95.7201 146.503 94.1001 144.943 93.1101ZM140.143 87.5001C141.253 87.5001 141.973 88.2801 141.973 89.3601C141.973 90.4401 141.223 91.2201 140.143 91.2201H136.723V87.5001H140.143ZM140.743 99.5001H136.723V95.4801H140.743C141.943 95.4801 142.723 96.3201 142.723 97.4901C142.723 98.6601 141.943 99.5001 140.743 99.5001ZM154.711 99.3801V95.6601H162.211V91.1001H154.711V87.6201H162.961V83.0001H149.911V104H163.111V99.3801H154.711ZM51.3277 132.42C55.1677 132.42 58.5277 130.53 60.3277 127.56L56.1877 125.16C55.2877 126.78 53.4577 127.74 51.3277 127.74C47.6077 127.74 45.2077 125.25 45.2077 121.5C45.2077 117.75 47.6077 115.26 51.3277 115.26C53.4577 115.26 55.2577 116.22 56.1877 117.84L60.3277 115.44C58.4977 112.47 55.1377 110.58 51.3277 110.58C44.9977 110.58 40.4077 115.32 40.4077 121.5C40.4077 127.68 44.9977 132.42 51.3277 132.42ZM72.3043 132.42C78.3343 132.42 83.2243 127.68 83.2243 121.5C83.2243 115.32 78.3343 110.58 72.3043 110.58C66.2743 110.58 61.3843 115.32 61.3843 121.5C61.3843 127.68 66.2743 132.42 72.3043 132.42ZM72.3043 127.74C68.8843 127.74 66.1843 125.25 66.1843 121.5C66.1843 117.75 68.8843 115.26 72.3043 115.26C75.7243 115.26 78.4243 117.75 78.4243 121.5C78.4243 125.25 75.7243 127.74 72.3043 127.74ZM97.6269 111V122.4L89.5269 111H85.9269V132H90.7269V120.6L98.8269 132H102.427V111H97.6269ZM118.775 115.62V111H106.025V132H110.825V124.29H118.625V119.67H110.825V115.62H118.775ZM121.611 111V132H126.411V111H121.611ZM141.059 132H146.219L141.749 124.29C144.059 123.12 145.619 120.78 145.619 118.2C145.619 114.21 142.409 111 138.419 111H130.019V132H134.819V125.1H137.099L141.059 132ZM134.819 115.5H138.419C139.739 115.5 140.819 116.67 140.819 118.2C140.819 119.73 139.739 120.9 138.419 120.9H134.819V115.5ZM169.476 111H164.676L158.976 120.33L153.276 111H148.476V132H153.276V119.79L158.706 128.7H159.246L164.676 119.79V132H169.476V111ZM177.885 127.38V123.66H185.385V119.1H177.885V115.62H186.135V111H173.085V132H186.285V127.38H177.885ZM197.393 111H188.993V132H197.393C203.183 132 207.593 127.44 207.593 121.5C207.593 115.56 203.183 111 197.393 111ZM197.393 127.38H193.793V115.62H197.393C200.693 115.62 202.973 117.9 202.973 121.5C202.973 125.1 200.693 127.38 197.393 127.38Z" fill="white"/>
<path d="M82 195.24C80.7067 195.24 79.6067 194.94 78.7 194.34C77.7933 193.74 77.16 192.9 76.8 191.82L78 191.12C78.2533 192 78.7133 192.68 79.38 193.16C80.06 193.64 80.94 193.88 82.02 193.88C83.06 193.88 83.8667 193.653 84.44 193.2C85.0267 192.733 85.32 192.12 85.32 191.36C85.32 190.627 85.0533 190.073 84.52 189.7C84 189.327 83.12 188.94 81.88 188.54C80.4 188.047 79.44 187.66 79 187.38C77.9333 186.74 77.4 185.813 77.4 184.6C77.4 183.413 77.8133 182.48 78.64 181.8C79.4533 181.107 80.4733 180.76 81.7 180.76C82.2467 180.76 82.7533 180.833 83.22 180.98C83.7 181.127 84.1333 181.34 84.52 181.62C84.92 181.887 85.2667 182.207 85.56 182.58C85.8667 182.94 86.12 183.34 86.32 183.78L85.14 184.44C84.5 182.893 83.3533 182.12 81.7 182.12C80.82 182.12 80.1133 182.333 79.58 182.76C79.06 183.187 78.8 183.78 78.8 184.54C78.8 185.247 79.04 185.767 79.52 186.1C80.0133 186.447 80.8067 186.8 81.9 187.16L82.98 187.54C83.1933 187.607 83.5133 187.727 83.94 187.9C84.3933 188.073 84.7067 188.22 84.88 188.34C85.08 188.46 85.32 188.633 85.6 188.86C85.8933 189.073 86.1 189.293 86.22 189.52C86.3533 189.733 86.4667 190 86.56 190.32C86.6667 190.627 86.72 190.96 86.72 191.32C86.72 192.507 86.2867 193.46 85.42 194.18C84.5533 194.887 83.4133 195.24 82 195.24ZM93.9305 186.28H91.0505V192.34C91.0505 192.767 91.1105 193.093 91.2305 193.32C91.3505 193.533 91.5305 193.687 91.7705 193.78C92.0105 193.86 92.3105 193.9 92.6705 193.9C93.0305 193.887 93.4505 193.867 93.9305 193.84V195C92.5305 195.213 91.4771 195.113 90.7705 194.7C90.0771 194.287 89.7305 193.5 89.7305 192.34V186.28H87.6305V185H89.7305V182.6L91.0505 182.2V185H93.9305V186.28ZM104.125 185H105.445V195H104.125V193.04C103.205 194.507 101.858 195.24 100.085 195.24C98.6583 195.24 97.4383 194.733 96.425 193.72C95.425 192.707 94.925 191.467 94.925 190C94.925 188.547 95.425 187.307 96.425 186.28C97.4383 185.267 98.6583 184.76 100.085 184.76C101.858 184.76 103.205 185.493 104.125 186.96V185ZM97.385 192.82C98.145 193.58 99.0783 193.96 100.185 193.96C101.292 193.96 102.225 193.58 102.985 192.82C103.745 192.047 104.125 191.107 104.125 190C104.125 188.893 103.745 187.96 102.985 187.2C102.225 186.427 101.292 186.04 100.185 186.04C99.0783 186.04 98.145 186.427 97.385 187.2C96.625 187.96 96.245 188.893 96.245 190C96.245 191.107 96.625 192.047 97.385 192.82ZM109.56 186.66C110.173 185.447 111.227 184.84 112.72 184.84V186.12C112.267 186.12 111.847 186.187 111.46 186.32C111.073 186.453 110.74 186.653 110.46 186.92C110.18 187.187 109.96 187.533 109.8 187.96C109.64 188.373 109.56 188.867 109.56 189.44V195H108.24V185H109.56V186.66ZM120.024 186.28H117.144V192.34C117.144 192.767 117.204 193.093 117.324 193.32C117.444 193.533 117.624 193.687 117.864 193.78C118.104 193.86 118.404 193.9 118.764 193.9C119.124 193.887 119.544 193.867 120.024 193.84V195C118.624 195.213 117.571 195.113 116.864 194.7C116.171 194.287 115.824 193.5 115.824 192.34V186.28H113.724V185H115.824V182.6L117.144 182.2V185H120.024V186.28ZM132.824 181C134.731 181 136.304 181.68 137.544 183.04C138.798 184.373 139.424 186.027 139.424 188C139.424 189.973 138.798 191.633 137.544 192.98C136.304 194.327 134.731 195 132.824 195H127.424V181H132.824ZM132.824 193.68C134.358 193.68 135.611 193.133 136.584 192.04C137.571 190.933 138.064 189.587 138.064 188C138.064 186.413 137.571 185.067 136.584 183.96C135.611 182.867 134.358 182.32 132.824 182.32H128.824V193.68H132.824ZM150.219 185H151.539V195H150.219V193.04C149.299 194.507 147.952 195.24 146.179 195.24C144.752 195.24 143.532 194.733 142.519 193.72C141.519 192.707 141.019 191.467 141.019 190C141.019 188.547 141.519 187.307 142.519 186.28C143.532 185.267 144.752 184.76 146.179 184.76C147.952 184.76 149.299 185.493 150.219 186.96V185ZM143.479 192.82C144.239 193.58 145.172 193.96 146.279 193.96C147.385 193.96 148.319 193.58 149.079 192.82C149.839 192.047 150.219 191.107 150.219 190C150.219 188.893 149.839 187.96 149.079 187.2C148.319 186.427 147.385 186.04 146.279 186.04C145.172 186.04 144.239 186.427 143.479 187.2C142.719 187.96 142.339 188.893 142.339 190C142.339 191.107 142.719 192.047 143.479 192.82ZM159.634 186.28H156.754V192.34C156.754 192.767 156.814 193.093 156.934 193.32C157.054 193.533 157.234 193.687 157.474 193.78C157.714 193.86 158.014 193.9 158.374 193.9C158.734 193.887 159.154 193.867 159.634 193.84V195C158.234 195.213 157.18 195.113 156.474 194.7C155.78 194.287 155.434 193.5 155.434 192.34V186.28H153.334V185H155.434V182.6L156.754 182.2V185H159.634V186.28ZM165.848 184.76C167.341 184.76 168.535 185.287 169.428 186.34C170.348 187.38 170.808 188.613 170.808 190.04C170.808 190.107 170.801 190.193 170.788 190.3C170.788 190.407 170.781 190.527 170.768 190.66H161.988C162.121 191.673 162.548 192.48 163.268 193.08C163.988 193.667 164.888 193.96 165.968 193.96C166.728 193.96 167.381 193.807 167.928 193.5C168.488 193.18 168.908 192.767 169.188 192.26L170.348 192.94C169.908 193.66 169.308 194.227 168.548 194.64C167.788 195.04 166.921 195.24 165.948 195.24C164.375 195.24 163.095 194.747 162.108 193.76C161.121 192.773 160.628 191.52 160.628 190C160.628 188.493 161.115 187.247 162.088 186.26C163.061 185.26 164.315 184.76 165.848 184.76ZM165.848 186.04C165.328 186.04 164.848 186.12 164.408 186.28C163.968 186.44 163.575 186.667 163.228 186.96C162.895 187.253 162.621 187.607 162.408 188.02C162.195 188.433 162.055 188.887 161.988 189.38H169.448C169.301 188.313 168.895 187.493 168.228 186.92C167.535 186.333 166.741 186.04 165.848 186.04Z" fill="white"/>
<path d="M340.257 119.42C344.817 119.42 348.057 117.02 348.057 112.97C348.057 108.53 344.487 107.42 341.307 106.46C338.037 105.47 337.527 104.81 337.527 103.85C337.527 103.01 338.277 102.26 339.777 102.26C341.697 102.26 342.687 103.19 343.407 104.69L347.457 102.32C345.927 99.2301 343.227 97.5801 339.777 97.5801C336.147 97.5801 332.727 99.9201 332.727 103.97C332.727 107.99 335.787 109.49 338.907 110.36C342.057 111.23 343.257 111.74 343.257 113.03C343.257 113.84 342.687 114.74 340.407 114.74C338.037 114.74 336.747 113.57 335.997 111.83L331.857 114.23C333.027 117.32 335.847 119.42 340.257 119.42ZM360.33 119.42C366.36 119.42 371.25 114.68 371.25 108.5C371.25 102.32 366.36 97.5801 360.33 97.5801C354.3 97.5801 349.41 102.32 349.41 108.5C349.41 114.68 354.3 119.42 360.33 119.42ZM360.33 114.74C356.91 114.74 354.21 112.25 354.21 108.5C354.21 104.75 356.91 102.26 360.33 102.26C363.75 102.26 366.45 104.75 366.45 108.5C366.45 112.25 363.75 114.74 360.33 114.74ZM383.972 119.42C390.002 119.42 394.892 114.68 394.892 108.5C394.892 102.32 390.002 97.5801 383.972 97.5801C377.942 97.5801 373.052 102.32 373.052 108.5C373.052 114.68 377.942 119.42 383.972 119.42ZM383.972 114.74C380.552 114.74 377.852 112.25 377.852 108.5C377.852 104.75 380.552 102.26 383.972 102.26C387.392 102.26 390.092 104.75 390.092 108.5C390.092 112.25 387.392 114.74 383.972 114.74ZM409.295 98.0001V109.4L401.195 98.0001H397.595V119H402.395V107.6L410.495 119H414.095V98.0001H409.295Z" fill="white"/>
<path d="M335.336 171H336.736V185H335.536L327.736 173.6V185H326.336V171H327.536L335.336 182.4V171ZM346.77 175H348.09V185H346.77V183.44C346.023 184.64 344.903 185.24 343.41 185.24C342.197 185.24 341.237 184.873 340.53 184.14C339.837 183.393 339.49 182.393 339.49 181.14V175H340.81V181.14C340.81 182.033 341.043 182.727 341.51 183.22C341.977 183.713 342.65 183.96 343.53 183.96C344.49 183.96 345.27 183.66 345.87 183.06C346.47 182.46 346.77 181.52 346.77 180.24V175ZM361.542 174.76C362.102 174.76 362.609 174.853 363.062 175.04C363.529 175.227 363.922 175.493 364.242 175.84C364.576 176.187 364.829 176.607 365.002 177.1C365.189 177.593 365.282 178.147 365.282 178.76V185H363.962V178.76C363.962 177.88 363.736 177.207 363.282 176.74C362.842 176.273 362.256 176.04 361.522 176.04C360.682 176.04 360.009 176.32 359.502 176.88C358.996 177.427 358.742 178.287 358.742 179.46V185H357.422V178.76C357.422 177.88 357.209 177.207 356.782 176.74C356.369 176.273 355.802 176.04 355.082 176.04C354.682 176.04 354.302 176.113 353.942 176.26C353.596 176.393 353.289 176.6 353.022 176.88C352.769 177.16 352.569 177.52 352.422 177.96C352.276 178.387 352.202 178.887 352.202 179.46V185H350.882V175H352.202V176.46C352.922 175.327 353.942 174.76 355.262 174.76C356.716 174.76 357.729 175.367 358.302 176.58C359.022 175.367 360.102 174.76 361.542 174.76ZM373.196 174.76C374.622 174.76 375.836 175.267 376.836 176.28C377.849 177.293 378.356 178.533 378.356 180C378.356 181.467 377.849 182.707 376.836 183.72C375.836 184.733 374.622 185.24 373.196 185.24C371.422 185.24 370.076 184.507 369.156 183.04V185H367.836V171H369.156V176.96C370.076 175.493 371.422 174.76 373.196 174.76ZM370.296 182.82C371.056 183.58 371.989 183.96 373.096 183.96C374.202 183.96 375.136 183.58 375.896 182.82C376.656 182.047 377.036 181.107 377.036 180C377.036 178.893 376.656 177.96 375.896 177.2C375.136 176.427 374.202 176.04 373.096 176.04C371.989 176.04 371.056 176.427 370.296 177.2C369.536 177.96 369.156 178.893 369.156 180C369.156 181.107 369.536 182.047 370.296 182.82ZM385.17 174.76C386.664 174.76 387.857 175.287 388.75 176.34C389.67 177.38 390.13 178.613 390.13 180.04C390.13 180.107 390.124 180.193 390.11 180.3C390.11 180.407 390.104 180.527 390.09 180.66H381.31C381.444 181.673 381.87 182.48 382.59 183.08C383.31 183.667 384.21 183.96 385.29 183.96C386.05 183.96 386.704 183.807 387.25 183.5C387.81 183.18 388.23 182.767 388.51 182.26L389.67 182.94C389.23 183.66 388.63 184.227 387.87 184.64C387.11 185.04 386.244 185.24 385.27 185.24C383.697 185.24 382.417 184.747 381.43 183.76C380.444 182.773 379.95 181.52 379.95 180C379.95 178.493 380.437 177.247 381.41 176.26C382.384 175.26 383.637 174.76 385.17 174.76ZM385.17 176.04C384.65 176.04 384.17 176.12 383.73 176.28C383.29 176.44 382.897 176.667 382.55 176.96C382.217 177.253 381.944 177.607 381.73 178.02C381.517 178.433 381.377 178.887 381.31 179.38H388.77C388.624 178.313 388.217 177.493 387.55 176.92C386.857 176.333 386.064 176.04 385.17 176.04ZM393.55 176.66C394.163 175.447 395.217 174.84 396.71 174.84V176.12C396.257 176.12 395.837 176.187 395.45 176.32C395.063 176.453 394.73 176.653 394.45 176.92C394.17 177.187 393.95 177.533 393.79 177.96C393.63 178.373 393.55 178.867 393.55 179.44V185H392.23V175H393.55V176.66ZM411.899 183.74C410.872 184.74 409.632 185.24 408.179 185.24C406.699 185.24 405.452 184.74 404.439 183.74C403.426 182.727 402.919 181.48 402.919 180C402.919 178.52 403.426 177.28 404.439 176.28C405.452 175.267 406.699 174.76 408.179 174.76C409.646 174.76 410.886 175.267 411.899 176.28C412.926 177.28 413.439 178.52 413.439 180C413.439 181.467 412.926 182.713 411.899 183.74ZM405.379 182.82C406.139 183.58 407.072 183.96 408.179 183.96C409.286 183.96 410.219 183.58 410.979 182.82C411.739 182.047 412.119 181.107 412.119 180C412.119 178.893 411.739 177.96 410.979 177.2C410.219 176.427 409.286 176.04 408.179 176.04C407.072 176.04 406.139 176.427 405.379 177.2C404.619 177.96 404.239 178.893 404.239 180C404.239 181.107 404.619 182.047 405.379 182.82ZM420.257 172.04C419.284 171.96 418.557 172.127 418.077 172.54C417.611 172.953 417.377 173.64 417.377 174.6V175H420.257V176.28H417.377V185H416.057V176.28H414.357V175H416.057V174.6C416.057 173.28 416.417 172.287 417.137 171.62C417.857 170.953 418.897 170.667 420.257 170.76V172.04ZM313.526 195.28H310.646V201.34C310.646 201.767 310.706 202.093 310.826 202.32C310.946 202.533 311.126 202.687 311.366 202.78C311.606 202.86 311.906 202.9 312.266 202.9C312.626 202.887 313.046 202.867 313.526 202.84V204C312.126 204.213 311.073 204.113 310.366 203.7C309.673 203.287 309.326 202.5 309.326 201.34V195.28H307.226V194H309.326V191.6L310.646 191.2V194H313.526V195.28ZM323.501 202.74C322.474 203.74 321.234 204.24 319.781 204.24C318.301 204.24 317.054 203.74 316.041 202.74C315.027 201.727 314.521 200.48 314.521 199C314.521 197.52 315.027 196.28 316.041 195.28C317.054 194.267 318.301 193.76 319.781 193.76C321.247 193.76 322.487 194.267 323.501 195.28C324.527 196.28 325.041 197.52 325.041 199C325.041 200.467 324.527 201.713 323.501 202.74ZM316.981 201.82C317.741 202.58 318.674 202.96 319.781 202.96C320.887 202.96 321.821 202.58 322.581 201.82C323.341 201.047 323.721 200.107 323.721 199C323.721 197.893 323.341 196.96 322.581 196.2C321.821 195.427 320.887 195.04 319.781 195.04C318.674 195.04 317.741 195.427 316.981 196.2C316.221 196.96 315.841 197.893 315.841 199C315.841 200.107 316.221 201.047 316.981 201.82ZM335.33 204H333.57L328.57 199.18V204H327.25V190H328.57V198.42L333.33 194H335.13L329.97 198.8L335.33 204ZM340.756 193.76C342.25 193.76 343.443 194.287 344.336 195.34C345.256 196.38 345.716 197.613 345.716 199.04C345.716 199.107 345.71 199.193 345.696 199.3C345.696 199.407 345.69 199.527 345.676 199.66H336.896C337.03 200.673 337.456 201.48 338.176 202.08C338.896 202.667 339.796 202.96 340.876 202.96C341.636 202.96 342.29 202.807 342.836 202.5C343.396 202.18 343.816 201.767 344.096 201.26L345.256 201.94C344.816 202.66 344.216 203.227 343.456 203.64C342.696 204.04 341.83 204.24 340.856 204.24C339.283 204.24 338.003 203.747 337.016 202.76C336.03 201.773 335.536 200.52 335.536 199C335.536 197.493 336.023 196.247 336.996 195.26C337.97 194.26 339.223 193.76 340.756 193.76ZM340.756 195.04C340.236 195.04 339.756 195.12 339.316 195.28C338.876 195.44 338.483 195.667 338.136 195.96C337.803 196.253 337.53 196.607 337.316 197.02C337.103 197.433 336.963 197.887 336.896 198.38H344.356C344.21 197.313 343.803 196.493 343.136 195.92C342.443 195.333 341.65 195.04 340.756 195.04ZM352.496 193.76C353.709 193.76 354.663 194.133 355.356 194.88C356.063 195.613 356.416 196.607 356.416 197.86V204H355.096V197.86C355.096 196.967 354.863 196.273 354.396 195.78C353.929 195.287 353.256 195.04 352.376 195.04C351.416 195.04 350.636 195.34 350.036 195.94C349.436 196.54 349.136 197.48 349.136 198.76V204H347.816V194H349.136V195.56C349.869 194.36 350.989 193.76 352.496 193.76ZM360.008 196.62C360.008 197.073 360.208 197.433 360.608 197.7C361.008 197.967 361.495 198.173 362.068 198.32C362.482 198.427 362.908 198.547 363.348 198.68C363.802 198.8 364.215 198.973 364.588 199.2C364.962 199.413 365.262 199.693 365.488 200.04C365.728 200.387 365.848 200.827 365.848 201.36C365.848 202.213 365.508 202.907 364.828 203.44C364.175 203.973 363.308 204.24 362.228 204.24C361.268 204.24 360.448 204.027 359.768 203.6C359.102 203.173 358.635 202.62 358.368 201.94L359.488 201.28C359.675 201.8 360.008 202.213 360.488 202.52C360.968 202.813 361.548 202.96 362.228 202.96C362.882 202.96 363.428 202.833 363.868 202.58C364.308 202.327 364.528 201.92 364.528 201.36C364.528 200.907 364.328 200.547 363.928 200.28C363.528 200.013 363.042 199.807 362.468 199.66C362.042 199.553 361.608 199.44 361.168 199.32C360.728 199.187 360.322 199.013 359.948 198.8C359.575 198.573 359.268 198.293 359.028 197.96C358.802 197.613 358.688 197.167 358.688 196.62C358.688 195.807 359.008 195.127 359.648 194.58C360.315 194.033 361.135 193.76 362.108 193.76C362.922 193.76 363.635 193.94 364.248 194.3C364.862 194.66 365.315 195.16 365.608 195.8L364.508 196.44C364.135 195.507 363.335 195.04 362.108 195.04C361.535 195.04 361.042 195.18 360.628 195.46C360.215 195.727 360.008 196.113 360.008 196.62ZM378.05 191.04C377.077 190.96 376.35 191.127 375.87 191.54C375.404 191.953 375.17 192.64 375.17 193.6V194H378.05V195.28H375.17V204H373.85V195.28H372.15V194H373.85V193.6C373.85 192.28 374.21 191.287 374.93 190.62C375.65 189.953 376.69 189.667 378.05 189.76V191.04ZM387.231 202.74C386.205 203.74 384.965 204.24 383.511 204.24C382.031 204.24 380.785 203.74 379.771 202.74C378.758 201.727 378.251 200.48 378.251 199C378.251 197.52 378.758 196.28 379.771 195.28C380.785 194.267 382.031 193.76 383.511 193.76C384.978 193.76 386.218 194.267 387.231 195.28C388.258 196.28 388.771 197.52 388.771 199C388.771 200.467 388.258 201.713 387.231 202.74ZM380.711 201.82C381.471 202.58 382.405 202.96 383.511 202.96C384.618 202.96 385.551 202.58 386.311 201.82C387.071 201.047 387.451 200.107 387.451 199C387.451 197.893 387.071 196.96 386.311 196.2C385.551 195.427 384.618 195.04 383.511 195.04C382.405 195.04 381.471 195.427 380.711 196.2C379.951 196.96 379.571 197.893 379.571 199C379.571 200.107 379.951 201.047 380.711 201.82ZM392.3 195.66C392.913 194.447 393.967 193.84 395.46 193.84V195.12C395.007 195.12 394.587 195.187 394.2 195.32C393.813 195.453 393.48 195.653 393.2 195.92C392.92 196.187 392.7 196.533 392.54 196.96C392.38 197.373 392.3 197.867 392.3 198.44V204H390.98V194H392.3V195.66ZM403.309 196.62C403.309 197.073 403.509 197.433 403.909 197.7C404.309 197.967 404.796 198.173 405.369 198.32C405.782 198.427 406.209 198.547 406.649 198.68C407.102 198.8 407.516 198.973 407.889 199.2C408.262 199.413 408.562 199.693 408.789 200.04C409.029 200.387 409.149 200.827 409.149 201.36C409.149 202.213 408.809 202.907 408.129 203.44C407.476 203.973 406.609 204.24 405.529 204.24C404.569 204.24 403.749 204.027 403.069 203.6C402.402 203.173 401.936 202.62 401.669 201.94L402.789 201.28C402.976 201.8 403.309 202.213 403.789 202.52C404.269 202.813 404.849 202.96 405.529 202.96C406.182 202.96 406.729 202.833 407.169 202.58C407.609 202.327 407.829 201.92 407.829 201.36C407.829 200.907 407.629 200.547 407.229 200.28C406.829 200.013 406.342 199.807 405.769 199.66C405.342 199.553 404.909 199.44 404.469 199.32C404.029 199.187 403.622 199.013 403.249 198.8C402.876 198.573 402.569 198.293 402.329 197.96C402.102 197.613 401.989 197.167 401.989 196.62C401.989 195.807 402.309 195.127 402.949 194.58C403.616 194.033 404.436 193.76 405.409 193.76C406.222 193.76 406.936 193.94 407.549 194.3C408.162 194.66 408.616 195.16 408.909 195.8L407.809 196.44C407.436 195.507 406.636 195.04 405.409 195.04C404.836 195.04 404.342 195.18 403.929 195.46C403.516 195.727 403.309 196.113 403.309 196.62ZM419.658 194H420.978V204H419.658V202.04C418.738 203.507 417.392 204.24 415.618 204.24C414.192 204.24 412.972 203.733 411.958 202.72C410.958 201.707 410.458 200.467 410.458 199C410.458 197.547 410.958 196.307 411.958 195.28C412.972 194.267 414.192 193.76 415.618 193.76C417.392 193.76 418.738 194.493 419.658 195.96V194ZM412.918 201.82C413.678 202.58 414.612 202.96 415.718 202.96C416.825 202.96 417.758 202.58 418.518 201.82C419.278 201.047 419.658 200.107 419.658 199C419.658 197.893 419.278 196.96 418.518 196.2C417.758 195.427 416.825 195.04 415.718 195.04C414.612 195.04 413.678 195.427 412.918 196.2C412.158 196.96 411.778 197.893 411.778 199C411.778 200.107 412.158 201.047 412.918 201.82ZM423.773 204V189.4H425.093V204H423.773ZM432.514 193.76C434.007 193.76 435.201 194.287 436.094 195.34C437.014 196.38 437.474 197.613 437.474 199.04C437.474 199.107 437.467 199.193 437.454 199.3C437.454 199.407 437.447 199.527 437.434 199.66H428.654C428.787 200.673 429.214 201.48 429.934 202.08C430.654 202.667 431.554 202.96 432.634 202.96C433.394 202.96 434.047 202.807 434.594 202.5C435.154 202.18 435.574 201.767 435.854 201.26L437.014 201.94C436.574 202.66 435.974 203.227 435.214 203.64C434.454 204.04 433.587 204.24 432.614 204.24C431.041 204.24 429.761 203.747 428.774 202.76C427.787 201.773 427.294 200.52 427.294 199C427.294 197.493 427.781 196.247 428.754 195.26C429.727 194.26 430.981 193.76 432.514 193.76ZM432.514 195.04C431.994 195.04 431.514 195.12 431.074 195.28C430.634 195.44 430.241 195.667 429.894 195.96C429.561 196.253 429.287 196.607 429.074 197.02C428.861 197.433 428.721 197.887 428.654 198.38H436.114C435.967 197.313 435.561 196.493 434.894 195.92C434.201 195.333 433.407 195.04 432.514 195.04Z" fill="white"/>
<path d="M589.257 119.42C593.817 119.42 597.057 117.02 597.057 112.97C597.057 108.53 593.487 107.42 590.307 106.46C587.037 105.47 586.527 104.81 586.527 103.85C586.527 103.01 587.277 102.26 588.777 102.26C590.697 102.26 591.687 103.19 592.407 104.69L596.457 102.32C594.927 99.2301 592.227 97.5801 588.777 97.5801C585.147 97.5801 581.727 99.9201 581.727 103.97C581.727 107.99 584.787 109.49 587.907 110.36C591.057 111.23 592.257 111.74 592.257 113.03C592.257 113.84 591.687 114.74 589.407 114.74C587.037 114.74 585.747 113.57 584.997 111.83L580.857 114.23C582.027 117.32 584.847 119.42 589.257 119.42ZM609.33 119.42C615.36 119.42 620.25 114.68 620.25 108.5C620.25 102.32 615.36 97.5801 609.33 97.5801C603.3 97.5801 598.41 102.32 598.41 108.5C598.41 114.68 603.3 119.42 609.33 119.42ZM609.33 114.74C605.91 114.74 603.21 112.25 603.21 108.5C603.21 104.75 605.91 102.26 609.33 102.26C612.75 102.26 615.45 104.75 615.45 108.5C615.45 112.25 612.75 114.74 609.33 114.74ZM632.972 119.42C639.002 119.42 643.892 114.68 643.892 108.5C643.892 102.32 639.002 97.5801 632.972 97.5801C626.942 97.5801 622.052 102.32 622.052 108.5C622.052 114.68 626.942 119.42 632.972 119.42ZM632.972 114.74C629.552 114.74 626.852 112.25 626.852 108.5C626.852 104.75 629.552 102.26 632.972 102.26C636.392 102.26 639.092 104.75 639.092 108.5C639.092 112.25 636.392 114.74 632.972 114.74ZM658.295 98.0001V109.4L650.195 98.0001H646.595V119H651.395V107.6L659.495 119H663.095V98.0001H658.295Z" fill="white"/>
<path d="M579.119 185L577.819 181.56H571.179L569.879 185H568.399L573.779 171H575.219L580.599 185H579.119ZM571.679 180.24H577.319L574.499 172.74L571.679 180.24ZM586.662 185.24C585.155 185.24 583.902 184.74 582.902 183.74C581.902 182.727 581.402 181.48 581.402 180C581.402 178.52 581.902 177.28 582.902 176.28C583.902 175.267 585.155 174.76 586.662 174.76C587.662 174.76 588.548 175 589.322 175.48C590.108 175.947 590.682 176.58 591.042 177.38L589.962 178C589.695 177.4 589.268 176.927 588.682 176.58C588.095 176.22 587.422 176.04 586.662 176.04C585.555 176.04 584.622 176.427 583.862 177.2C583.102 177.96 582.722 178.893 582.722 180C582.722 181.107 583.102 182.047 583.862 182.82C584.622 183.58 585.555 183.96 586.662 183.96C587.422 183.96 588.088 183.787 588.662 183.44C589.248 183.08 589.708 182.6 590.042 182L591.142 182.64C590.728 183.44 590.122 184.073 589.322 184.54C588.522 185.007 587.635 185.24 586.662 185.24ZM597.599 185.24C596.092 185.24 594.839 184.74 593.839 183.74C592.839 182.727 592.339 181.48 592.339 180C592.339 178.52 592.839 177.28 593.839 176.28C594.839 175.267 596.092 174.76 597.599 174.76C598.599 174.76 599.486 175 600.259 175.48C601.046 175.947 601.619 176.58 601.979 177.38L600.899 178C600.632 177.4 600.206 176.927 599.619 176.58C599.032 176.22 598.359 176.04 597.599 176.04C596.492 176.04 595.559 176.427 594.799 177.2C594.039 177.96 593.659 178.893 593.659 180C593.659 181.107 594.039 182.047 594.799 182.82C595.559 183.58 596.492 183.96 597.599 183.96C598.359 183.96 599.026 183.787 599.599 183.44C600.186 183.08 600.646 182.6 600.979 182L602.079 182.64C601.666 183.44 601.059 184.073 600.259 184.54C599.459 185.007 598.572 185.24 597.599 185.24ZM608.497 174.76C609.99 174.76 611.183 175.287 612.077 176.34C612.997 177.38 613.457 178.613 613.457 180.04C613.457 180.107 613.45 180.193 613.437 180.3C613.437 180.407 613.43 180.527 613.417 180.66H604.637C604.77 181.673 605.197 182.48 605.917 183.08C606.637 183.667 607.537 183.96 608.617 183.96C609.377 183.96 610.03 183.807 610.577 183.5C611.137 183.18 611.557 182.767 611.837 182.26L612.997 182.94C612.557 183.66 611.957 184.227 611.197 184.64C610.437 185.04 609.57 185.24 608.597 185.24C607.023 185.24 605.743 184.747 604.757 183.76C603.77 182.773 603.277 181.52 603.277 180C603.277 178.493 603.763 177.247 604.737 176.26C605.71 175.26 606.963 174.76 608.497 174.76ZM608.497 176.04C607.977 176.04 607.497 176.12 607.057 176.28C606.617 176.44 606.223 176.667 605.877 176.96C605.543 177.253 605.27 177.607 605.057 178.02C604.843 178.433 604.703 178.887 604.637 179.38H612.097C611.95 178.313 611.543 177.493 610.877 176.92C610.183 176.333 609.39 176.04 608.497 176.04ZM620.916 174.76C622.343 174.76 623.556 175.267 624.556 176.28C625.57 177.293 626.076 178.533 626.076 180C626.076 181.467 625.57 182.707 624.556 183.72C623.556 184.733 622.343 185.24 620.916 185.24C619.143 185.24 617.796 184.507 616.876 183.04V189H615.556V175H616.876V176.96C617.796 175.493 619.143 174.76 620.916 174.76ZM618.016 182.82C618.776 183.58 619.71 183.96 620.816 183.96C621.923 183.96 622.856 183.58 623.616 182.82C624.376 182.047 624.756 181.107 624.756 180C624.756 178.893 624.376 177.96 623.616 177.2C622.856 176.427 621.923 176.04 620.816 176.04C619.71 176.04 618.776 176.427 618.016 177.2C617.256 177.96 616.876 178.893 616.876 180C616.876 181.107 617.256 182.047 618.016 182.82ZM633.376 176.28H630.496V182.34C630.496 182.767 630.556 183.093 630.676 183.32C630.796 183.533 630.976 183.687 631.216 183.78C631.456 183.86 631.756 183.9 632.116 183.9C632.476 183.887 632.896 183.867 633.376 183.84V185C631.976 185.213 630.922 185.113 630.216 184.7C629.522 184.287 629.176 183.5 629.176 182.34V176.28H627.076V175H629.176V172.6L630.496 172.2V175H633.376V176.28ZM643.57 175H644.89V185H643.57V183.04C642.65 184.507 641.304 185.24 639.53 185.24C638.104 185.24 636.884 184.733 635.87 183.72C634.87 182.707 634.37 181.467 634.37 180C634.37 178.547 634.87 177.307 635.87 176.28C636.884 175.267 638.104 174.76 639.53 174.76C641.304 174.76 642.65 175.493 643.57 176.96V175ZM636.83 182.82C637.59 183.58 638.524 183.96 639.63 183.96C640.737 183.96 641.67 183.58 642.43 182.82C643.19 182.047 643.57 181.107 643.57 180C643.57 178.893 643.19 177.96 642.43 177.2C641.67 176.427 640.737 176.04 639.63 176.04C638.524 176.04 637.59 176.427 636.83 177.2C636.07 177.96 635.69 178.893 635.69 180C635.69 181.107 636.07 182.047 636.83 182.82ZM653.045 174.76C654.472 174.76 655.685 175.267 656.685 176.28C657.698 177.293 658.205 178.533 658.205 180C658.205 181.467 657.698 182.707 656.685 183.72C655.685 184.733 654.472 185.24 653.045 185.24C651.272 185.24 649.925 184.507 649.005 183.04V185H647.685V171H649.005V176.96C649.925 175.493 651.272 174.76 653.045 174.76ZM650.145 182.82C650.905 183.58 651.838 183.96 652.945 183.96C654.052 183.96 654.985 183.58 655.745 182.82C656.505 182.047 656.885 181.107 656.885 180C656.885 178.893 656.505 177.96 655.745 177.2C654.985 176.427 654.052 176.04 652.945 176.04C651.838 176.04 650.905 176.427 650.145 177.2C649.385 177.96 649.005 178.893 649.005 180C649.005 181.107 649.385 182.047 650.145 182.82ZM660.4 185V170.4H661.72V185H660.4ZM669.141 174.76C670.634 174.76 671.828 175.287 672.721 176.34C673.641 177.38 674.101 178.613 674.101 180.04C674.101 180.107 674.094 180.193 674.081 180.3C674.081 180.407 674.074 180.527 674.061 180.66H665.281C665.414 181.673 665.841 182.48 666.561 183.08C667.281 183.667 668.181 183.96 669.261 183.96C670.021 183.96 670.674 183.807 671.221 183.5C671.781 183.18 672.201 182.767 672.481 182.26L673.641 182.94C673.201 183.66 672.601 184.227 671.841 184.64C671.081 185.04 670.214 185.24 669.241 185.24C667.668 185.24 666.388 184.747 665.401 183.76C664.414 182.773 663.921 181.52 663.921 180C663.921 178.493 664.408 177.247 665.381 176.26C666.354 175.26 667.608 174.76 669.141 174.76ZM669.141 176.04C668.621 176.04 668.141 176.12 667.701 176.28C667.261 176.44 666.868 176.667 666.521 176.96C666.188 177.253 665.914 177.607 665.701 178.02C665.488 178.433 665.348 178.887 665.281 179.38H672.741C672.594 178.313 672.188 177.493 671.521 176.92C670.828 176.333 670.034 176.04 669.141 176.04ZM588.449 204.24C586.942 204.24 585.689 203.74 584.689 202.74C583.689 201.727 583.189 200.48 583.189 199C583.189 197.52 583.689 196.28 584.689 195.28C585.689 194.267 586.942 193.76 588.449 193.76C589.449 193.76 590.335 194 591.109 194.48C591.895 194.947 592.469 195.58 592.829 196.38L591.749 197C591.482 196.4 591.055 195.927 590.469 195.58C589.882 195.22 589.209 195.04 588.449 195.04C587.342 195.04 586.409 195.427 585.649 196.2C584.889 196.96 584.509 197.893 584.509 199C584.509 200.107 584.889 201.047 585.649 201.82C586.409 202.58 587.342 202.96 588.449 202.96C589.209 202.96 589.875 202.787 590.449 202.44C591.035 202.08 591.495 201.6 591.829 201L592.929 201.64C592.515 202.44 591.909 203.073 591.109 203.54C590.309 204.007 589.422 204.24 588.449 204.24ZM601.864 194H603.184V204H601.864V202.44C601.117 203.64 599.997 204.24 598.504 204.24C597.29 204.24 596.33 203.873 595.624 203.14C594.93 202.393 594.584 201.393 594.584 200.14V194H595.904V200.14C595.904 201.033 596.137 201.727 596.604 202.22C597.07 202.713 597.744 202.96 598.624 202.96C599.584 202.96 600.364 202.66 600.964 202.06C601.564 201.46 601.864 200.52 601.864 199.24V194ZM607.296 195.66C607.91 194.447 608.963 193.84 610.456 193.84V195.12C610.003 195.12 609.583 195.187 609.196 195.32C608.81 195.453 608.476 195.653 608.196 195.92C607.916 196.187 607.696 196.533 607.536 196.96C607.376 197.373 607.296 197.867 607.296 198.44V204H605.976V194H607.296V195.66ZM613.585 195.66C614.199 194.447 615.252 193.84 616.745 193.84V195.12C616.292 195.12 615.872 195.187 615.485 195.32C615.099 195.453 614.765 195.653 614.485 195.92C614.205 196.187 613.985 196.533 613.825 196.96C613.665 197.373 613.585 197.867 613.585 198.44V204H612.265V194H613.585V195.66ZM622.569 193.76C624.062 193.76 625.255 194.287 626.149 195.34C627.069 196.38 627.529 197.613 627.529 199.04C627.529 199.107 627.522 199.193 627.509 199.3C627.509 199.407 627.502 199.527 627.489 199.66H618.709C618.842 200.673 619.269 201.48 619.989 202.08C620.709 202.667 621.609 202.96 622.689 202.96C623.449 202.96 624.102 202.807 624.649 202.5C625.209 202.18 625.629 201.767 625.909 201.26L627.069 201.94C626.629 202.66 626.029 203.227 625.269 203.64C624.509 204.04 623.642 204.24 622.669 204.24C621.095 204.24 619.815 203.747 618.829 202.76C617.842 201.773 617.349 200.52 617.349 199C617.349 197.493 617.835 196.247 618.809 195.26C619.782 194.26 621.035 193.76 622.569 193.76ZM622.569 195.04C622.049 195.04 621.569 195.12 621.129 195.28C620.689 195.44 620.295 195.667 619.949 195.96C619.615 196.253 619.342 196.607 619.129 197.02C618.915 197.433 618.775 197.887 618.709 198.38H626.169C626.022 197.313 625.615 196.493 624.949 195.92C624.255 195.333 623.462 195.04 622.569 195.04ZM634.309 193.76C635.522 193.76 636.475 194.133 637.169 194.88C637.875 195.613 638.229 196.607 638.229 197.86V204H636.909V197.86C636.909 196.967 636.675 196.273 636.209 195.78C635.742 195.287 635.069 195.04 634.189 195.04C633.229 195.04 632.449 195.34 631.849 195.94C631.249 196.54 630.949 197.48 630.949 198.76V204H629.629V194H630.949V195.56C631.682 194.36 632.802 193.76 634.309 193.76ZM645.441 204.24C643.934 204.24 642.681 203.74 641.681 202.74C640.681 201.727 640.181 200.48 640.181 199C640.181 197.52 640.681 196.28 641.681 195.28C642.681 194.267 643.934 193.76 645.441 193.76C646.441 193.76 647.328 194 648.101 194.48C648.888 194.947 649.461 195.58 649.821 196.38L648.741 197C648.474 196.4 648.048 195.927 647.461 195.58C646.874 195.22 646.201 195.04 645.441 195.04C644.334 195.04 643.401 195.427 642.641 196.2C641.881 196.96 641.501 197.893 641.501 199C641.501 200.107 641.881 201.047 642.641 201.82C643.401 202.58 644.334 202.96 645.441 202.96C646.201 202.96 646.868 202.787 647.441 202.44C648.028 202.08 648.488 201.6 648.821 201L649.921 201.64C649.508 202.44 648.901 203.073 648.101 203.54C647.301 204.007 646.414 204.24 645.441 204.24ZM659.016 194H660.416L656.136 204.92C655.749 205.92 655.196 206.7 654.476 207.26C653.769 207.82 652.976 208.067 652.096 208V206.76C653.296 206.907 654.209 206.213 654.836 204.68L655.096 204.06L650.616 194H652.016L655.776 202.38L659.016 194Z" fill="white"/>
<path d="M216.257 332.42C220.817 332.42 224.057 330.02 224.057 325.97C224.057 321.53 220.487 320.42 217.307 319.46C214.037 318.47 213.527 317.81 213.527 316.85C213.527 316.01 214.277 315.26 215.777 315.26C217.697 315.26 218.687 316.19 219.407 317.69L223.457 315.32C221.927 312.23 219.227 310.58 215.777 310.58C212.147 310.58 208.727 312.92 208.727 316.97C208.727 320.99 211.787 322.49 214.907 323.36C218.057 324.23 219.257 324.74 219.257 326.03C219.257 326.84 218.687 327.74 216.407 327.74C214.037 327.74 212.747 326.57 211.997 324.83L207.857 327.23C209.027 330.32 211.847 332.42 216.257 332.42ZM236.33 332.42C242.36 332.42 247.25 327.68 247.25 321.5C247.25 315.32 242.36 310.58 236.33 310.58C230.3 310.58 225.41 315.32 225.41 321.5C225.41 327.68 230.3 332.42 236.33 332.42ZM236.33 327.74C232.91 327.74 230.21 325.25 230.21 321.5C230.21 317.75 232.91 315.26 236.33 315.26C239.75 315.26 242.45 317.75 242.45 321.5C242.45 325.25 239.75 327.74 236.33 327.74ZM259.972 332.42C266.002 332.42 270.892 327.68 270.892 321.5C270.892 315.32 266.002 310.58 259.972 310.58C253.942 310.58 249.052 315.32 249.052 321.5C249.052 327.68 253.942 332.42 259.972 332.42ZM259.972 327.74C256.552 327.74 253.852 325.25 253.852 321.5C253.852 317.75 256.552 315.26 259.972 315.26C263.392 315.26 266.092 317.75 266.092 321.5C266.092 325.25 263.392 327.74 259.972 327.74ZM285.295 311V322.4L277.195 311H273.595V332H278.395V320.6L286.495 332H290.095V311H285.295Z" fill="white"/>
<path d="M215.559 383C216.812 383 217.859 383.42 218.699 384.26C219.539 385.1 219.959 386.147 219.959 387.4C219.959 388.653 219.539 389.7 218.699 390.54C217.859 391.38 216.812 391.8 215.559 391.8H211.959V397H210.559V383H215.559ZM215.559 390.48C216.426 390.48 217.139 390.193 217.699 389.62C218.272 389.047 218.559 388.307 218.559 387.4C218.559 386.507 218.272 385.773 217.699 385.2C217.139 384.613 216.426 384.32 215.559 384.32H211.959V390.48H215.559ZM229.955 387H231.275V397H229.955V395.04C229.035 396.507 227.688 397.24 225.915 397.24C224.488 397.24 223.268 396.733 222.255 395.72C221.255 394.707 220.755 393.467 220.755 392C220.755 390.547 221.255 389.307 222.255 388.28C223.268 387.267 224.488 386.76 225.915 386.76C227.688 386.76 229.035 387.493 229.955 388.96V387ZM223.215 394.82C223.975 395.58 224.908 395.96 226.015 395.96C227.122 395.96 228.055 395.58 228.815 394.82C229.575 394.047 229.955 393.107 229.955 392C229.955 390.893 229.575 389.96 228.815 389.2C228.055 388.427 227.122 388.04 226.015 388.04C224.908 388.04 223.975 388.427 223.215 389.2C222.455 389.96 222.075 390.893 222.075 392C222.075 393.107 222.455 394.047 223.215 394.82ZM238.75 386.76C239.963 386.76 240.917 387.133 241.61 387.88C242.317 388.613 242.67 389.607 242.67 390.86V397H241.35V390.86C241.35 389.967 241.117 389.273 240.65 388.78C240.183 388.287 239.51 388.04 238.63 388.04C237.67 388.04 236.89 388.34 236.29 388.94C235.69 389.54 235.39 390.48 235.39 391.76V397H234.07V387H235.39V388.56C236.123 387.36 237.243 386.76 238.75 386.76ZM249.882 397.24C248.376 397.24 247.122 396.74 246.122 395.74C245.122 394.727 244.622 393.48 244.622 392C244.622 390.52 245.122 389.28 246.122 388.28C247.122 387.267 248.376 386.76 249.882 386.76C250.882 386.76 251.769 387 252.542 387.48C253.329 387.947 253.902 388.58 254.262 389.38L253.182 390C252.916 389.4 252.489 388.927 251.902 388.58C251.316 388.22 250.642 388.04 249.882 388.04C248.776 388.04 247.842 388.427 247.082 389.2C246.322 389.96 245.942 390.893 245.942 392C245.942 393.107 246.322 394.047 247.082 394.82C247.842 395.58 248.776 395.96 249.882 395.96C250.642 395.96 251.309 395.787 251.882 395.44C252.469 395.08 252.929 394.6 253.262 394L254.362 394.64C253.949 395.44 253.342 396.073 252.542 396.54C251.742 397.007 250.856 397.24 249.882 397.24ZM264.76 387H266.08V397H264.76V395.04C263.84 396.507 262.493 397.24 260.72 397.24C259.293 397.24 258.073 396.733 257.06 395.72C256.06 394.707 255.56 393.467 255.56 392C255.56 390.547 256.06 389.307 257.06 388.28C258.073 387.267 259.293 386.76 260.72 386.76C262.493 386.76 263.84 387.493 264.76 388.96V387ZM258.02 394.82C258.78 395.58 259.713 395.96 260.82 395.96C261.926 395.96 262.86 395.58 263.62 394.82C264.38 394.047 264.76 393.107 264.76 392C264.76 390.893 264.38 389.96 263.62 389.2C262.86 388.427 261.926 388.04 260.82 388.04C259.713 388.04 258.78 388.427 258.02 389.2C257.26 389.96 256.88 390.893 256.88 392C256.88 393.107 257.26 394.047 258.02 394.82ZM276.955 397H275.195L270.195 392.18V397H268.875V383H270.195V391.42L274.955 387H276.755L271.595 391.8L276.955 397ZM282.381 386.76C283.875 386.76 285.068 387.287 285.961 388.34C286.881 389.38 287.341 390.613 287.341 392.04C287.341 392.107 287.335 392.193 287.321 392.3C287.321 392.407 287.315 392.527 287.301 392.66H278.521C278.655 393.673 279.081 394.48 279.801 395.08C280.521 395.667 281.421 395.96 282.501 395.96C283.261 395.96 283.915 395.807 284.461 395.5C285.021 395.18 285.441 394.767 285.721 394.26L286.881 394.94C286.441 395.66 285.841 396.227 285.081 396.64C284.321 397.04 283.455 397.24 282.481 397.24C280.908 397.24 279.628 396.747 278.641 395.76C277.655 394.773 277.161 393.52 277.161 392C277.161 390.493 277.648 389.247 278.621 388.26C279.595 387.26 280.848 386.76 282.381 386.76ZM282.381 388.04C281.861 388.04 281.381 388.12 280.941 388.28C280.501 388.44 280.108 388.667 279.761 388.96C279.428 389.253 279.155 389.607 278.941 390.02C278.728 390.433 278.588 390.887 278.521 391.38H285.981C285.835 390.313 285.428 389.493 284.761 388.92C284.068 388.333 283.275 388.04 282.381 388.04ZM197.633 414.68H204.033V416H196.233V402H197.633V414.68ZM207.178 403.6C206.991 403.787 206.764 403.88 206.498 403.88C206.231 403.88 206.004 403.787 205.818 403.6C205.631 403.413 205.538 403.187 205.538 402.92C205.538 402.653 205.631 402.427 205.818 402.24C206.004 402.053 206.231 401.96 206.498 401.96C206.764 401.96 206.991 402.053 207.178 402.24C207.364 402.427 207.458 402.653 207.458 402.92C207.458 403.187 207.364 403.413 207.178 403.6ZM205.838 416V406H207.158V416H205.838ZM210.999 408.62C210.999 409.073 211.199 409.433 211.599 409.7C211.999 409.967 212.485 410.173 213.059 410.32C213.472 410.427 213.899 410.547 214.339 410.68C214.792 410.8 215.205 410.973 215.579 411.2C215.952 411.413 216.252 411.693 216.479 412.04C216.719 412.387 216.839 412.827 216.839 413.36C216.839 414.213 216.499 414.907 215.819 415.44C215.165 415.973 214.299 416.24 213.219 416.24C212.259 416.24 211.439 416.027 210.759 415.6C210.092 415.173 209.625 414.62 209.359 413.94L210.479 413.28C210.665 413.8 210.999 414.213 211.479 414.52C211.959 414.813 212.539 414.96 213.219 414.96C213.872 414.96 214.419 414.833 214.859 414.58C215.299 414.327 215.519 413.92 215.519 413.36C215.519 412.907 215.319 412.547 214.919 412.28C214.519 412.013 214.032 411.807 213.459 411.66C213.032 411.553 212.599 411.44 212.159 411.32C211.719 411.187 211.312 411.013 210.939 410.8C210.565 410.573 210.259 410.293 210.019 409.96C209.792 409.613 209.679 409.167 209.679 408.62C209.679 407.807 209.999 407.127 210.639 406.58C211.305 406.033 212.125 405.76 213.099 405.76C213.912 405.76 214.625 405.94 215.239 406.3C215.852 406.66 216.305 407.16 216.599 407.8L215.499 408.44C215.125 407.507 214.325 407.04 213.099 407.04C212.525 407.04 212.032 407.18 211.619 407.46C211.205 407.727 210.999 408.113 210.999 408.62ZM223.95 407.28H221.07V413.34C221.07 413.767 221.13 414.093 221.25 414.32C221.37 414.533 221.55 414.687 221.79 414.78C222.03 414.86 222.33 414.9 222.69 414.9C223.05 414.887 223.47 414.867 223.95 414.84V416C222.55 416.213 221.497 416.113 220.79 415.7C220.097 415.287 219.75 414.5 219.75 413.34V407.28H217.65V406H219.75V403.6L221.07 403.2V406H223.95V407.28ZM227.49 403.6C227.303 403.787 227.077 403.88 226.81 403.88C226.543 403.88 226.317 403.787 226.13 403.6C225.943 403.413 225.85 403.187 225.85 402.92C225.85 402.653 225.943 402.427 226.13 402.24C226.317 402.053 226.543 401.96 226.81 401.96C227.077 401.96 227.303 402.053 227.49 402.24C227.677 402.427 227.77 402.653 227.77 402.92C227.77 403.187 227.677 403.413 227.49 403.6ZM226.15 416V406H227.47V416H226.15ZM234.951 405.76C236.164 405.76 237.118 406.133 237.811 406.88C238.518 407.613 238.871 408.607 238.871 409.86V416H237.551V409.86C237.551 408.967 237.318 408.273 236.851 407.78C236.384 407.287 235.711 407.04 234.831 407.04C233.871 407.04 233.091 407.34 232.491 407.94C231.891 408.54 231.591 409.48 231.591 410.76V416H230.271V406H231.591V407.56C232.324 406.36 233.444 405.76 234.951 405.76ZM250.023 406H251.343V415.6C251.343 417.04 250.85 418.173 249.863 419C248.877 419.827 247.697 420.24 246.323 420.24C243.99 420.24 242.41 419.427 241.583 417.8L242.743 417.14C243.343 418.353 244.537 418.96 246.323 418.96C247.483 418.96 248.39 418.66 249.043 418.06C249.697 417.46 250.023 416.64 250.023 415.6V414.04C249.103 415.507 247.757 416.24 245.983 416.24C244.557 416.24 243.337 415.733 242.323 414.72C241.323 413.707 240.823 412.467 240.823 411C240.823 409.547 241.323 408.307 242.323 407.28C243.337 406.267 244.557 405.76 245.983 405.76C247.757 405.76 249.103 406.493 250.023 407.96V406ZM243.283 413.82C244.043 414.58 244.977 414.96 246.083 414.96C247.19 414.96 248.123 414.58 248.883 413.82C249.643 413.047 250.023 412.107 250.023 411C250.023 409.893 249.643 408.96 248.883 408.2C248.123 407.427 247.19 407.04 246.083 407.04C244.977 407.04 244.043 407.427 243.283 408.2C242.523 408.96 242.143 409.893 242.143 411C242.143 412.107 242.523 413.047 243.283 413.82ZM264.338 402C265.592 402 266.638 402.42 267.478 403.26C268.318 404.1 268.738 405.147 268.738 406.4C268.738 407.653 268.318 408.7 267.478 409.54C266.638 410.38 265.592 410.8 264.338 410.8H260.738V416H259.338V402H264.338ZM264.338 409.48C265.205 409.48 265.918 409.193 266.478 408.62C267.052 408.047 267.338 407.307 267.338 406.4C267.338 405.507 267.052 404.773 266.478 404.2C265.918 403.613 265.205 403.32 264.338 403.32H260.738V409.48H264.338ZM272.06 407.66C272.673 406.447 273.727 405.84 275.22 405.84V407.12C274.767 407.12 274.347 407.187 273.96 407.32C273.573 407.453 273.24 407.653 272.96 407.92C272.68 408.187 272.46 408.533 272.3 408.96C272.14 409.373 272.06 409.867 272.06 410.44V416H270.74V406H272.06V407.66ZM278.369 403.6C278.182 403.787 277.956 403.88 277.689 403.88C277.422 403.88 277.196 403.787 277.009 403.6C276.822 403.413 276.729 403.187 276.729 402.92C276.729 402.653 276.822 402.427 277.009 402.24C277.196 402.053 277.422 401.96 277.689 401.96C277.956 401.96 278.182 402.053 278.369 402.24C278.556 402.427 278.649 402.653 278.649 402.92C278.649 403.187 278.556 403.413 278.369 403.6ZM277.029 416V406H278.349V416H277.029ZM285.81 416.24C284.303 416.24 283.05 415.74 282.05 414.74C281.05 413.727 280.55 412.48 280.55 411C280.55 409.52 281.05 408.28 282.05 407.28C283.05 406.267 284.303 405.76 285.81 405.76C286.81 405.76 287.697 406 288.47 406.48C289.257 406.947 289.83 407.58 290.19 408.38L289.11 409C288.843 408.4 288.417 407.927 287.83 407.58C287.243 407.22 286.57 407.04 285.81 407.04C284.703 407.04 283.77 407.427 283.01 408.2C282.25 408.96 281.87 409.893 281.87 411C281.87 412.107 282.25 413.047 283.01 413.82C283.77 414.58 284.703 414.96 285.81 414.96C286.57 414.96 287.237 414.787 287.81 414.44C288.397 414.08 288.857 413.6 289.19 413L290.29 413.64C289.877 414.44 289.27 415.073 288.47 415.54C287.67 416.007 286.783 416.24 285.81 416.24ZM296.708 405.76C298.201 405.76 299.394 406.287 300.288 407.34C301.208 408.38 301.668 409.613 301.668 411.04C301.668 411.107 301.661 411.193 301.648 411.3C301.648 411.407 301.641 411.527 301.628 411.66H292.848C292.981 412.673 293.408 413.48 294.128 414.08C294.848 414.667 295.748 414.96 296.828 414.96C297.588 414.96 298.241 414.807 298.788 414.5C299.348 414.18 299.768 413.767 300.048 413.26L301.208 413.94C300.768 414.66 300.168 415.227 299.408 415.64C298.648 416.04 297.781 416.24 296.808 416.24C295.234 416.24 293.954 415.747 292.968 414.76C291.981 413.773 291.488 412.52 291.488 411C291.488 409.493 291.974 408.247 292.948 407.26C293.921 406.26 295.174 405.76 296.708 405.76ZM296.708 407.04C296.188 407.04 295.708 407.12 295.268 407.28C294.828 407.44 294.434 407.667 294.088 407.96C293.754 408.253 293.481 408.607 293.268 409.02C293.054 409.433 292.914 409.887 292.848 410.38H300.308C300.161 409.313 299.754 408.493 299.088 407.92C298.394 407.333 297.601 407.04 296.708 407.04Z" fill="white"/>
<path d="M473.88 296H458.28V300.62H463.68V317H468.48V300.62H473.88V296ZM484.8 317.42C490.83 317.42 495.72 312.68 495.72 306.5C495.72 300.32 490.83 295.58 484.8 295.58C478.77 295.58 473.88 300.32 473.88 306.5C473.88 312.68 478.77 317.42 484.8 317.42ZM484.8 312.74C481.38 312.74 478.68 310.25 478.68 306.5C478.68 302.75 481.38 300.26 484.8 300.26C488.22 300.26 490.92 302.75 490.92 306.5C490.92 310.25 488.22 312.74 484.8 312.74ZM518.943 306.11C520.083 305.12 520.773 303.74 520.773 302C520.773 298.37 517.803 296 514.143 296H505.923V317H514.743C518.493 317 521.523 314.57 521.523 310.85C521.523 308.72 520.503 307.1 518.943 306.11ZM514.143 300.5C515.253 300.5 515.973 301.28 515.973 302.36C515.973 303.44 515.223 304.22 514.143 304.22H510.723V300.5H514.143ZM514.743 312.5H510.723V308.48H514.743C515.943 308.48 516.723 309.32 516.723 310.49C516.723 311.66 515.943 312.5 514.743 312.5ZM528.711 312.38V308.66H536.211V304.1H528.711V300.62H536.961V296H523.911V317H537.111V312.38H528.711ZM425.328 345.42C429.168 345.42 432.528 343.53 434.328 340.56L430.188 338.16C429.288 339.78 427.458 340.74 425.328 340.74C421.608 340.74 419.208 338.25 419.208 334.5C419.208 330.75 421.608 328.26 425.328 328.26C427.458 328.26 429.258 329.22 430.188 330.84L434.328 328.44C432.498 325.47 429.138 323.58 425.328 323.58C418.998 323.58 414.408 328.32 414.408 334.5C414.408 340.68 418.998 345.42 425.328 345.42ZM446.304 345.42C452.334 345.42 457.224 340.68 457.224 334.5C457.224 328.32 452.334 323.58 446.304 323.58C440.274 323.58 435.384 328.32 435.384 334.5C435.384 340.68 440.274 345.42 446.304 345.42ZM446.304 340.74C442.884 340.74 440.184 338.25 440.184 334.5C440.184 330.75 442.884 328.26 446.304 328.26C449.724 328.26 452.424 330.75 452.424 334.5C452.424 338.25 449.724 340.74 446.304 340.74ZM471.627 324V335.4L463.527 324H459.927V345H464.727V333.6L472.827 345H476.427V324H471.627ZM492.775 328.62V324H480.025V345H484.825V337.29H492.625V332.67H484.825V328.62H492.775ZM495.611 324V345H500.411V324H495.611ZM515.059 345H520.219L515.749 337.29C518.059 336.12 519.619 333.78 519.619 331.2C519.619 327.21 516.409 324 512.419 324H504.019V345H508.819V338.1H511.099L515.059 345ZM508.819 328.5H512.419C513.739 328.5 514.819 329.67 514.819 331.2C514.819 332.73 513.739 333.9 512.419 333.9H508.819V328.5ZM543.476 324H538.676L532.976 333.33L527.276 324H522.476V345H527.276V332.79L532.706 341.7H533.246L538.676 332.79V345H543.476V324ZM551.885 340.38V336.66H559.385V332.1H551.885V328.62H560.135V324H547.085V345H560.285V340.38H551.885ZM571.393 324H562.993V345H571.393C577.183 345 581.593 340.44 581.593 334.5C581.593 328.56 577.183 324 571.393 324ZM571.393 340.38H567.793V328.62H571.393C574.693 328.62 576.973 330.9 576.973 334.5C576.973 338.1 574.693 340.38 571.393 340.38Z" fill="white"/>
<path d="M458 405.68H464.8V407H456.6V393H464.7V394.32H458V399.28H464.2V400.6H458V405.68ZM471.685 396.76C472.899 396.76 473.852 397.133 474.545 397.88C475.252 398.613 475.605 399.607 475.605 400.86V407H474.285V400.86C474.285 399.967 474.052 399.273 473.585 398.78C473.119 398.287 472.445 398.04 471.565 398.04C470.605 398.04 469.825 398.34 469.225 398.94C468.625 399.54 468.325 400.48 468.325 401.76V407H467.005V397H468.325V398.56C469.059 397.36 470.179 396.76 471.685 396.76ZM486.758 393H488.078V407H486.758V405.04C485.838 406.507 484.491 407.24 482.718 407.24C481.291 407.24 480.071 406.733 479.058 405.72C478.058 404.707 477.558 403.467 477.558 402C477.558 400.547 478.058 399.307 479.058 398.28C480.071 397.267 481.291 396.76 482.718 396.76C484.491 396.76 485.838 397.493 486.758 398.96V393ZM480.018 404.82C480.778 405.58 481.711 405.96 482.818 405.96C483.924 405.96 484.858 405.58 485.618 404.82C486.378 404.047 486.758 403.107 486.758 402C486.758 400.893 486.378 399.96 485.618 399.2C484.858 398.427 483.924 398.04 482.818 398.04C481.711 398.04 480.778 398.427 480.018 399.2C479.258 399.96 478.878 400.893 478.878 402C478.878 403.107 479.258 404.047 480.018 404.82ZM501.473 393C503.379 393 504.953 393.68 506.193 395.04C507.446 396.373 508.073 398.027 508.073 400C508.073 401.973 507.446 403.633 506.193 404.98C504.953 406.327 503.379 407 501.473 407H496.073V393H501.473ZM501.473 405.68C503.006 405.68 504.259 405.133 505.233 404.04C506.219 402.933 506.713 401.587 506.713 400C506.713 398.413 506.219 397.067 505.233 395.96C504.259 394.867 503.006 394.32 501.473 394.32H497.473V405.68H501.473ZM518.867 397H520.187V407H518.867V405.04C517.947 406.507 516.601 407.24 514.827 407.24C513.401 407.24 512.181 406.733 511.167 405.72C510.167 404.707 509.667 403.467 509.667 402C509.667 400.547 510.167 399.307 511.167 398.28C512.181 397.267 513.401 396.76 514.827 396.76C516.601 396.76 517.947 397.493 518.867 398.96V397ZM512.127 404.82C512.887 405.58 513.821 405.96 514.927 405.96C516.034 405.96 516.967 405.58 517.727 404.82C518.487 404.047 518.867 403.107 518.867 402C518.867 400.893 518.487 399.96 517.727 399.2C516.967 398.427 516.034 398.04 514.927 398.04C513.821 398.04 512.887 398.427 512.127 399.2C511.367 399.96 510.987 400.893 510.987 402C510.987 403.107 511.367 404.047 512.127 404.82ZM528.282 398.28H525.402V404.34C525.402 404.767 525.462 405.093 525.582 405.32C525.702 405.533 525.882 405.687 526.122 405.78C526.362 405.86 526.662 405.9 527.022 405.9C527.382 405.887 527.802 405.867 528.282 405.84V407C526.882 407.213 525.829 407.113 525.122 406.7C524.429 406.287 524.082 405.5 524.082 404.34V398.28H521.982V397H524.082V394.6L525.402 394.2V397H528.282V398.28ZM534.497 396.76C535.99 396.76 537.183 397.287 538.077 398.34C538.997 399.38 539.457 400.613 539.457 402.04C539.457 402.107 539.45 402.193 539.437 402.3C539.437 402.407 539.43 402.527 539.417 402.66H530.637C530.77 403.673 531.197 404.48 531.917 405.08C532.637 405.667 533.537 405.96 534.617 405.96C535.377 405.96 536.03 405.807 536.577 405.5C537.137 405.18 537.557 404.767 537.837 404.26L538.997 404.94C538.557 405.66 537.957 406.227 537.197 406.64C536.437 407.04 535.57 407.24 534.597 407.24C533.023 407.24 531.743 406.747 530.757 405.76C529.77 404.773 529.277 403.52 529.277 402C529.277 400.493 529.763 399.247 530.737 398.26C531.71 397.26 532.963 396.76 534.497 396.76ZM534.497 398.04C533.977 398.04 533.497 398.12 533.057 398.28C532.617 398.44 532.223 398.667 531.877 398.96C531.543 399.253 531.27 399.607 531.057 400.02C530.843 400.433 530.703 400.887 530.637 401.38H538.097C537.95 400.313 537.543 399.493 536.877 398.92C536.183 398.333 535.39 398.04 534.497 398.04Z" fill="white"/>
</g>
<defs>
<clipPath id="clip0_510_27">
<rect width="746" height="488" fill="white"/>
</clipPath>
</defs>
</svg>
